<?xml version="1.0" standalone="no"?>
<!DOCTYPE svg PUBLIC "-//W3C//DTD SVG 1.1//EN" "http://www.w3.org/Graphics/SVG/1.1/DTD/svg11.dtd">
<svg class="icon" width="200px" height="200.00px" viewBox="0 0 1024 1024" version="1.1" xmlns="http://www.w3.org/2000/svg">
    <path fill="currentColor" d="M448 416a96 96 0 0 1-96-96V192a96 96 0 0 1 96-96h128a96 96 0 0 1 96 96v128a96 96 0 0 1-96 96h-32v64h192a64 64 0 0 1 63.84 59.2L800 544v64h32a96 96 0 0 1 95.84 90.368L928 704v128a96 96 0 0 1-90.368 95.84L832 928h-128a96 96 0 0 1-95.84-90.368L608 832v-128a96 96 0 0 1 90.368-95.84L704 608h32v-64H288v64h32a96 96 0 0 1 95.84 90.368L416 704v128a96 96 0 0 1-90.368 95.84L320 928H192a96 96 0 0 1-95.84-90.368L96 832v-128a96 96 0 0 1 90.368-95.84L192 608h32v-64a64 64 0 0 1 59.2-63.84L288 480h192v-64z m384 256h-128a32 32 0 0 0-31.776 28.256L672 704v128a32 32 0 0 0 28.256 31.776L704 864h128a32 32 0 0 0 31.776-28.256L864 832v-128a32 32 0 0 0-32-32z m-512 0H192a32 32 0 0 0-31.776 28.256L160 704v128a32 32 0 0 0 28.256 31.776L192 864h128a32 32 0 0 0 31.776-28.256L352 832v-128a32 32 0 0 0-32-32z m256-512h-128a32 32 0 0 0-32 32v128a32 32 0 0 0 32 32h128a32 32 0 0 0 32-32V192a32 32 0 0 0-32-32z" />
</svg>