<?xml version="1.0" standalone="no"?>
<!DOCTYPE svg PUBLIC "-//W3C//DTD SVG 1.1//EN" "http://www.w3.org/Graphics/SVG/1.1/DTD/svg11.dtd">
<svg class="icon" width="200px" height="200.00px" viewBox="0 0 1024 1024" version="1.1" xmlns="http://www.w3.org/2000/svg">
    <path fill="currentColor" d="M422.336 387.744l49.152 49.152-73.728 73.696 98.24 98.24 73.76-73.664 49.12 49.12-73.696 73.696 19.648 19.648c15.2 15.2 16.224 39.232 3.04 55.584l-3.04 3.392-105.632 105.632a191.104 191.104 0 0 1-257.408 11.744l-84.16 84.128a6.4 6.4 0 0 1-9.024 0l-40.096-40.096a6.4 6.4 0 0 1 0-9.056l84.128-84.128a191.104 191.104 0 0 1 11.744-257.408l105.632-105.6a41.696 41.696 0 0 1 58.976 0l19.616 19.616 73.728-73.696z m493.056-319.232l40.096 40.096a6.4 6.4 0 0 1 0 9.056l-84.128 84.16a191.104 191.104 0 0 1-11.744 257.376l-105.632 105.632a41.696 41.696 0 0 1-58.976 0l-235.84-235.84a41.696 41.696 0 0 1 0-58.976l105.632-105.632a191.104 191.104 0 0 1 257.408-11.744l84.16-84.128a6.4 6.4 0 0 1 9.024 0z" />
</svg>