<?xml version="1.0" standalone="no"?>
<!DOCTYPE svg PUBLIC "-//W3C//DTD SVG 1.1//EN" "http://www.w3.org/Graphics/SVG/1.1/DTD/svg11.dtd">
<svg class="icon" width="200px" height="200.00px" viewBox="0 0 1024 1024" version="1.1" xmlns="http://www.w3.org/2000/svg">
    <path fill="currentColor" d="M97.28 218.112A96 96 0 0 1 186.432 135.36l6.208-0.192 255.136 0.832c25.536 0.096 49.92 10.336 66.816 27.296l4.064 4.352 135.616 138.912-45.792 44.704-136.864-140.256a32 32 0 0 0-20.16-10.752l-3.904-0.256-255.104-0.832a32 32 0 0 0-31.04 23.776l-0.768 3.872-34.688 252.768a32 32 0 0 0 5.152 22.208l2.4 3.136 159.392 183.36-48.32 41.984-159.36-183.36a96 96 0 0 1-23.328-69.696l0.64-6.336L97.28 218.112zM821.984 204.736L311.68 862.656l-49.024-41.12zM856.384 339.424l122.24 126.592a96 96 0 0 1 1.6 131.712l-3.936 4.032-276.224 266.752a96 96 0 0 1-131.68 1.6l-4.032-3.936-100.832-104.128 45.984-44.512 100.832 104.16a32 32 0 0 0 42.432 3.2l2.816-2.4 276.224-266.752a32 32 0 0 0 3.232-42.432l-2.432-2.816-122.24-126.624 46.016-44.448zM293.728 331.136m-63.756461 5.577968a64 64 0 1 0 127.512922-11.155936 64 64 0 1 0-127.512922 11.155936Z" />
</svg>