<?xml version="1.0" standalone="no"?>
<!DOCTYPE svg PUBLIC "-//W3C//DTD SVG 1.1//EN" "http://www.w3.org/Graphics/SVG/1.1/DTD/svg11.dtd">
<svg class="icon" width="200px" height="200.00px" viewBox="0 0 1024 1024" version="1.1" xmlns="http://www.w3.org/2000/svg">
    <path fill="currentColor" d="M96 160a32 32 0 0 1 32 32v288h64v-160a64 64 0 0 1 59.2-63.84L256 256h96v512H256a64 64 0 0 1-63.84-59.2L192 704v-160H128v288a32 32 0 0 1-64 0V192a32 32 0 0 1 32-32z m736 544a64 64 0 0 1-59.2 63.84L768 768H416V256h352a64 64 0 0 1 63.84 59.2L832 320v160h64V192a32 32 0 0 1 64 0v640a32 32 0 0 1-64 0v-288h-64v160z" />
</svg>