<?xml version="1.0" standalone="no"?>
<!DOCTYPE svg PUBLIC "-//W3C//DTD SVG 1.1//EN" "http://www.w3.org/Graphics/SVG/1.1/DTD/svg11.dtd">
<svg class="icon" width="200px" height="200.00px" viewBox="0 0 1024 1024" version="1.1" xmlns="http://www.w3.org/2000/svg">
    <path fill="currentColor" d="M775.456 821.408a32 32 0 0 1 0 64h-512a32 32 0 1 1 0-64h512z m-298.24-645.472a64 64 0 0 1 84.48 0l165.76 145.696 109.184-96a64 64 0 0 1 104.288 63.904L840.096 685.12a96 96 0 0 1-93.024 72.288H291.84a96 96 0 0 1-93.056-72.32L98.016 289.568A64 64 0 0 1 202.24 225.664l109.184 96zM519.456 224l-165.76 145.696a64 64 0 0 1-84.48 0L160 273.696l100.864 395.616a32 32 0 0 0 31.008 24.096h455.2a32 32 0 0 0 31.008-24.096l100.8-395.584-109.152 96a64 64 0 0 1-84.512 0L519.456 224z" />
</svg>