<?xml version="1.0" standalone="no"?><!DOCTYPE svg PUBLIC "-//W3C//DTD SVG 1.1//EN" "http://www.w3.org/Graphics/SVG/1.1/DTD/svg11.dtd"><svg class="icon" width="200px" height="200.00px" viewBox="0 0 1024 1024" version="1.1" xmlns="http://www.w3.org/2000/svg"><path fill="currentColor" d="M309.344 102.4a32 32 0 0 1 32 32l-0.032 2.112h341.344V134.4a32 32 0 0 1 32-32h4.288a32 32 0 0 1 32 32l-0.032 2.112h102.4c37.728 0 68.288 30.592 68.288 68.288v648.544a68.256 68.256 0 0 1-68.256 68.256H170.656A68.256 68.256 0 0 1 102.4 853.344V204.8c0-37.696 30.56-68.256 68.256-68.256l102.4-0.032V134.4a32 32 0 0 1 32-32h4.288z m32 580.256H273.056v68.288h68.288v-68.288z m204.8 0h-68.288v68.288h68.288v-68.288z m204.8 0h-68.288v68.288h68.288v-68.288zM341.344 512H273.056v68.256h68.288V512z m204.8 0h-68.288v68.256h68.288V512z m204.8 0h-68.288v68.256h68.288V512z m166.4-136.544H106.656v68.288h810.688v-68.288z" /></svg>