<?xml version="1.0" standalone="no"?><!DOCTYPE svg PUBLIC "-//W3C//DTD SVG 1.1//EN" "http://www.w3.org/Graphics/SVG/1.1/DTD/svg11.dtd"><svg class="icon" width="200px" height="200.00px" viewBox="0 0 1024 1024" version="1.1" xmlns="http://www.w3.org/2000/svg"><path fill="currentColor" d="M809.408 163.712l1.568 5.312L834.24 256H870.4c47.712 0 86.72 39.968 89.44 90.368L960 352v448c0 53.024-40.128 96-89.6 96H153.6C104.128 896 64 853.024 64 800V352c0-48.96 34.176-89.312 78.336-95.264 7.296-6.208 15.68-11.072 24.864-14.336l6.08-1.92 529.024-141.76c45.76-12.224 91.776 17.792 107.104 64.96z m22.592 286.72a32 32 0 0 0-32 32v192a32 32 0 0 0 64 0v-192a32 32 0 0 0-32-32z m-110.528-290.304l-2.592 0.448L362.624 256H768l-18.88-70.4c-4.448-16.672-17.088-26.4-27.648-25.472z" /></svg>