<svg class="icon" viewBox="0 0 1024 1024" version="1.1" xmlns="http://www.w3.org/2000/svg" width="200" height="200"><path d="M507.744 64c245.056 0 443.712 198.656 443.712 443.744 0 245.056-198.656 443.712-443.712 443.712C262.656 951.456 64 752.8 64 507.744 64 262.656 262.656 64 507.744 64z m0 64C298.016 128 128 298.016 128 507.744c0 209.696 170.016 379.712 379.744 379.712 209.696 0 379.712-170.016 379.712-379.712C887.456 298.016 717.44 128 507.744 128z m224.544 264.672l7.136 7.392a16 16 0 0 1-0.384 22.624l-276.224 266.752a16 16 0 0 1-22.624-0.384l-155.488-160.96a16 16 0 0 1 0.416-22.656l0.128-0.128 12.256-11.52a16 16 0 0 1 21.76-0.192l133.12 121.44 257.92-223.36a16 16 0 0 1 21.984 0.992z"></path></svg>

