<svg class="icon" viewBox="0 0 1024 1024" version="1.1" xmlns="http://www.w3.org/2000/svg" width="200" height="200"><path d="M507.744 64c245.056 0 443.712 198.656 443.712 443.744 0 245.056-198.656 443.712-443.712 443.712C262.656 951.456 64 752.8 64 507.744 64 262.656 262.656 64 507.744 64z m224.544 328.672a16 16 0 0 0-21.984-0.96l-257.92 223.36-133.12-121.472a16 16 0 0 0-21.76 0.16l-12.256 11.52a16.032 16.032 0 0 0-0.544 22.784l155.488 160.992a16 16 0 0 0 22.624 0.384l276.224-266.752a16 16 0 0 0 0.384-22.624z" fill="currentColor"></path></svg>

