<?xml version="1.0" standalone="no"?><!DOCTYPE svg PUBLIC "-//W3C//DTD SVG 1.1//EN" "http://www.w3.org/Graphics/SVG/1.1/DTD/svg11.dtd"><svg class="icon" width="200px" height="200.00px" viewBox="0 0 1024 1024" version="1.1" xmlns="http://www.w3.org/2000/svg"><path fill="currentColor" d="M464.64 527.36a32 32 0 0 1 32 32v152.32A184.32 184.32 0 0 1 312.32 896H160a32 32 0 0 1-32-32v-152.32a184.32 184.32 0 0 1 184.32-184.32z m247.04 0A184.32 184.32 0 0 1 896 711.68V864a32 32 0 0 1-32 32h-152.32a184.32 184.32 0 0 1-184.32-184.32v-152.32a32 32 0 0 1 32-32h152.32zM312.32 128a184.32 184.32 0 0 1 184.32 184.32v152.32a32 32 0 0 1-32 32H312.32A184.32 184.32 0 0 1 128 312.32V160a32 32 0 0 1 32-32h152.32zM864 128a32 32 0 0 1 32 32v152.32a184.32 184.32 0 0 1-184.32 184.32h-152.32a32 32 0 0 1-32-32V312.32A184.32 184.32 0 0 1 711.68 128z" /></svg>