<?xml version="1.0" standalone="no"?><!DOCTYPE svg PUBLIC "-//W3C//DTD SVG 1.1//EN" "http://www.w3.org/Graphics/SVG/1.1/DTD/svg11.dtd"><svg class="icon" width="200px" height="200.00px" viewBox="0 0 1024 1024" version="1.1" xmlns="http://www.w3.org/2000/svg"><path fill="currentColor" d="M465.92 527.36a30.72 30.72 0 0 1 30.528 27.136l0.192 3.584v153.6a184.32 184.32 0 0 1-177.408 184.192L312.32 896h-153.6a30.72 30.72 0 0 1-30.528-27.136L128 865.28v-153.6a184.32 184.32 0 0 1 177.408-184.192l6.912-0.128h153.6z m245.76 0A184.32 184.32 0 0 1 896 711.68v153.6c0 16.96-13.76 30.72-30.72 30.72h-153.6a184.32 184.32 0 0 1-184.32-184.32v-153.6c0-16.96 13.76-30.72 30.72-30.72h153.6zM313.44 588.8l-5.76 0.096a122.88 122.88 0 0 0-118.08 116.608l-0.16 6.176v122.88h121.76l5.76-0.096a122.88 122.88 0 0 0 118.08-116.608l0.16-6.176V588.8H313.44z m398.24 0H588.8v122.88a122.88 122.88 0 0 0 116.736 122.72l6.144 0.16h122.88v-122.88a122.88 122.88 0 0 0-116.736-122.72l-6.144-0.16zM312.32 128a184.32 184.32 0 0 1 184.32 184.32v153.6c0 16.96-13.76 30.72-30.72 30.72h-153.6A184.32 184.32 0 0 1 128 312.32v-153.6c0-16.96 13.76-30.72 30.72-30.72h153.6z m552.96 0a30.72 30.72 0 0 1 30.528 27.136L896 158.72v153.6a184.32 184.32 0 0 1-177.408 184.192l-6.912 0.128h-153.6a30.72 30.72 0 0 1-30.528-27.136l-0.192-3.584v-153.6a184.32 184.32 0 0 1 177.408-184.192L711.68 128h153.6zM312.32 189.44H189.44v122.88a122.88 122.88 0 0 0 116.736 122.72l6.144 0.16h122.88V312.32a122.88 122.88 0 0 0-116.736-122.72L312.32 189.44z m400.48 0l-5.76 0.096a122.88 122.88 0 0 0-118.08 116.608l-0.16 6.176v122.88h121.76l5.76-0.096a122.88 122.88 0 0 0 118.08-116.608l0.16-6.176V189.44h-121.76z" /></svg>