<?xml version="1.0" standalone="no"?>
<!DOCTYPE svg PUBLIC "-//W3C//DTD SVG 1.1//EN" "http://www.w3.org/Graphics/SVG/1.1/DTD/svg11.dtd">
<svg class="icon" width="200px" height="200.00px" viewBox="0 0 1024 1024" version="1.1" xmlns="http://www.w3.org/2000/svg">
  <path d="M448 544a32 32 0 0 1 32 32v288a32 32 0 0 1-32 32H160a32 32 0 0 1-32-32v-288a32 32 0 0 1 32-32h288z m416 0a32 32 0 0 1 32 32v288a32 32 0 0 1-32 32h-288a32 32 0 0 1-32-32v-288a32 32 0 0 1 32-32h288zM448 128a32 32 0 0 1 32 32v288a32 32 0 0 1-32 32H160a32 32 0 0 1-32-32V160a32 32 0 0 1 32-32h288z m416 0a32 32 0 0 1 32 32v288a32 32 0 0 1-32 32h-288a32 32 0 0 1-32-32V160a32 32 0 0 1 32-32h288z" fill="currentColor" />
</svg>