<?xml version="1.0" standalone="no"?>
<!DOCTYPE svg PUBLIC "-//W3C//DTD SVG 1.1//EN" "http://www.w3.org/Graphics/SVG/1.1/DTD/svg11.dtd">
<svg class="icon" width="200px" height="200.00px" viewBox="0 0 1024 1024" version="1.1" xmlns="http://www.w3.org/2000/svg">
    <path fill="currentColor" d="M828 196c55.232 0 100 44.8 100 100v533.344c0 55.232-44.8 100-100 100H228A100 100 0 0 1 128 829.344V296c0-55.232 44.8-100 100-100z m0 66.656H228c-18.4 0-33.344 14.944-33.344 33.344v533.344c0 18.4 14.944 33.312 33.344 33.312h600c18.4 0 33.344-14.912 33.344-33.312V296c0-18.4-14.944-33.344-33.344-33.344z m-133.344 133.344c17.12 0 31.2 12.864 33.12 29.44l0.224 3.904v27.776a200 200 0 0 1-399.872 7.488l-0.128-7.488v-27.776a33.344 33.344 0 0 1 66.432-3.904l0.224 3.904v27.776a133.344 133.344 0 0 0 266.528 6.656l0.16-6.656v-27.776c0-18.432 14.912-33.344 33.312-33.344zM768 96a32 32 0 0 1 0 64H256a32 32 0 1 1 0-64h512z" />
</svg>