<?xml version="1.0" standalone="no"?>
<!DOCTYPE svg PUBLIC "-//W3C//DTD SVG 1.1//EN" "http://www.w3.org/Graphics/SVG/1.1/DTD/svg11.dtd"><svg t="1648712449205"
  class="icon" viewBox="0 0 1024 1024" version="1.1" xmlns="http://www.w3.org/2000/svg" p-id="5924"
  xmlns:xlink="http://www.w3.org/1999/xlink" width="128" height="128">
  <path fill="currentColor"
    d="M864 128a64 64 0 0 1 64 64v544a64 64 0 0 1-64 64h-256l-96 96-96-96H160a64 64 0 0 1-64-64V192a64 64 0 0 1 64-64h704z m0 64H160v544h282.496L512 805.472 581.504 736H864V192z m-502.4 256a41.6 41.6 0 1 1 0 83.2 41.6 41.6 0 0 1 0-83.2z m320 0a41.6 41.6 0 1 1 0 83.2 41.6 41.6 0 0 1 0-83.2z m-160 0a41.6 41.6 0 1 1 0 83.2 41.6 41.6 0 0 1 0-83.2z">
  </path>
</svg>
