<?xml version="1.0" standalone="no"?>
<!DOCTYPE svg PUBLIC "-//W3C//DTD SVG 1.1//EN" "http://www.w3.org/Graphics/SVG/1.1/DTD/svg11.dtd">
<svg class="icon" width="200px" height="200.00px" viewBox="0 0 1024 1024" version="1.1" xmlns="http://www.w3.org/2000/svg">
    <path fill="currentColor" d="M856.64 160A103.36 103.36 0 0 1 960 263.36v379.104a103.36 103.36 0 0 1-103.36 103.36h-310.208v71.392h174.784a32 32 0 0 1 32 32v4.928a32 32 0 0 1-32 32H302.784a32 32 0 0 1-32-32v-4.928a32 32 0 0 1 32-32h174.752v-71.392H167.392a103.36 103.36 0 0 1-103.232-97.504L64 642.464V263.36A103.36 103.36 0 0 1 167.36 160z m0 68.928H167.36c-19.008 0-34.432 15.424-34.432 34.464v379.072c0 19.04 15.424 34.464 34.464 34.464h689.216c19.04 0 34.464-15.424 34.464-34.464V263.36c0-19.04-15.424-34.464-34.464-34.464z" />
</svg>