<?xml version="1.0" standalone="no"?>
<!DOCTYPE svg PUBLIC "-//W3C//DTD SVG 1.1//EN" "http://www.w3.org/Graphics/SVG/1.1/DTD/svg11.dtd">
<svg class="icon" width="200px" height="200.00px" viewBox="0 0 1024 1024" version="1.1" xmlns="http://www.w3.org/2000/svg">
    <path fill="currentColor" d="M832 288a96 96 0 0 1 96 96v448a96 96 0 0 1-96 96H384a96 96 0 0 1-96-96V384a96 96 0 0 1 96-96z m0 64H384a32 32 0 0 0-32 32v448a32 32 0 0 0 32 32h448a32 32 0 0 0 32-32V384a32 32 0 0 0-32-32z m-192-256a96 96 0 0 1 95.84 90.368L736 192v32.544a32 32 0 0 1-63.776 3.744L672 224.544V192a32 32 0 0 0-28.256-31.776L640 160H192a32 32 0 0 0-31.776 28.256L160 192v448a32 32 0 0 0 28.256 31.776L192 672h33.568a32 32 0 0 1 3.712 63.776L225.6 736H192a96 96 0 0 1-95.84-90.368L96 640V192a96 96 0 0 1 90.368-95.84L192 96h448z" />
</svg>