<?xml version="1.0" standalone="no"?>
<!DOCTYPE svg PUBLIC "-//W3C//DTD SVG 1.1//EN" "http://www.w3.org/Graphics/SVG/1.1/DTD/svg11.dtd">
<svg class="icon" width="200px" height="200.00px" viewBox="0 0 1024 1024" version="1.1" xmlns="http://www.w3.org/2000/svg">
    <path fill="currentColor" d="M832 288a96 96 0 0 1 96 96v448a96 96 0 0 1-96 96H384a96 96 0 0 1-96-96V384a96 96 0 0 1 96-96z m-192-192a96 96 0 0 1 95.84 90.368L736 192v32H320a96 96 0 0 0-96 96v416H192a96 96 0 0 1-95.84-90.368L96 640V192a96 96 0 0 1 90.368-95.84L192 96h448z" />
</svg>