<?xml version="1.0" standalone="no"?><!DOCTYPE svg PUBLIC "-//W3C//DTD SVG 1.1//EN" "http://www.w3.org/Graphics/SVG/1.1/DTD/svg11.dtd"><svg class="icon" width="200px" height="200.00px" viewBox="0 0 1024 1024" version="1.1" xmlns="http://www.w3.org/2000/svg"><path fill="currentColor" d="M864 160a96 96 0 0 1 96 96v160a32 32 0 0 1-32 32h-32c-33.92 0-61.952 26.496-63.84 59.296L832 512c0 33.92 26.496 61.952 59.296 63.84L896 576h32a32 32 0 0 1 32 32v160a96 96 0 0 1-96 96H160a96 96 0 0 1-96-96v-160a32 32 0 0 1 32-32h32c33.92 0 61.952-26.496 63.84-59.296L192 512c0-33.92-26.496-61.952-59.296-63.84L128 448H96a32 32 0 0 1-32-32V256a96 96 0 0 1 96-96z m0 64H160a32 32 0 0 0-32 32v128l7.488 0.224A128.192 128.192 0 0 1 256 512.928l-0.224 6.56A128 128 0 0 1 128 640v128a32 32 0 0 0 28.256 31.776L160 800h704a32 32 0 0 0 32-32v-128.032l-7.488-0.192A128.192 128.192 0 0 1 768 511.072l0.224-6.56A128 128 0 0 1 896 384V256a32 32 0 0 0-32-32z m-256 352a32 32 0 0 1 0 64h-192a32 32 0 0 1 0-64h192z m0-192a32 32 0 0 1 0 64h-192a32 32 0 0 1 0-64h192z" /></svg>