<?xml version="1.0" standalone="no"?><!DOCTYPE svg PUBLIC "-//W3C//DTD SVG 1.1//EN" "http://www.w3.org/Graphics/SVG/1.1/DTD/svg11.dtd"><svg class="icon" width="200px" height="200.00px" viewBox="0 0 1024 1024" version="1.1" xmlns="http://www.w3.org/2000/svg"><path fill="currentColor" d="M864 160a96 96 0 0 1 96 96v160a32 32 0 0 1-32 32h-32c-33.92 0-61.952 26.496-63.84 59.296L832 512c0 33.92 26.496 61.952 59.296 63.84L896 576h32a32 32 0 0 1 32 32v160a96 96 0 0 1-96 96H160a96 96 0 0 1-96-96v-160a32 32 0 0 1 32-32h32c33.92 0 61.952-26.496 63.84-59.296L192 512c0-33.92-26.496-61.952-59.296-63.84L128 448H96a32 32 0 0 1-32-32V256a96 96 0 0 1 96-96z m-256 416h-192a32 32 0 0 0 0 64h192a32 32 0 0 0 0-64z m0-192h-192a32 32 0 0 0 0 64h192a32 32 0 0 0 0-64z" /></svg>