<svg class="icon" viewBox="0 0 1024 1024" version="1.1" xmlns="http://www.w3.org/2000/svg" width="200" height="200"><path d="M507.744 64c245.056 0 443.712 198.656 443.712 443.744 0 245.056-198.656 443.712-443.712 443.712C262.656 951.456 64 752.8 64 507.744 64 262.656 262.656 64 507.744 64z m-108.896 289.6a32 32 0 0 0-45.248 45.248L466.752 512l-113.152 113.152a32 32 0 0 0 45.248 45.248L512 557.248l113.152 113.152a32 32 0 0 0 45.248-45.248L557.248 512l113.152-113.152a32 32 0 0 0-45.248-45.248L512 466.752z" p-id="2140" fill="currentColor"></path></svg>