<?xml version="1.0" standalone="no"?><!DOCTYPE svg PUBLIC "-//W3C//DTD SVG 1.1//EN" "http://www.w3.org/Graphics/SVG/1.1/DTD/svg11.dtd"><svg class="icon" width="200px" height="200.00px" viewBox="0 0 1024 1024" version="1.1" xmlns="http://www.w3.org/2000/svg"><path fill="currentColor" d="M598.4 68.256a16 16 0 0 1 16 16v52.256h309.344a32 32 0 0 1 32 32V172.8a32 32 0 0 1-32 32H883.84l-35.68 684.448a34.144 34.144 0 0 1-34.08 32.352H209.888a34.144 34.144 0 0 1-34.08-32.352L140.064 204.768 100.256 204.8a32 32 0 0 1-32-32v-4.256a32 32 0 0 1 32-32H409.6l0.032-52.288a16 16 0 0 1 16-16h172.8z m-186.656 307.2h-4.288a32 32 0 0 0-32 32v243.2a32 32 0 0 0 32 32h4.288a32 32 0 0 0 32-32v-243.2a32 32 0 0 0-32-32z m204.8 0h-4.288a32 32 0 0 0-32 32v243.2a32 32 0 0 0 32 32h4.288a32 32 0 0 0 32-32v-243.2a32 32 0 0 0-32-32z" /></svg>