<?xml version="1.0" standalone="no"?><!DOCTYPE svg PUBLIC "-//W3C//DTD SVG 1.1//EN" "http://www.w3.org/Graphics/SVG/1.1/DTD/svg11.dtd"><svg class="icon" width="200px" height="200.00px" viewBox="0 0 1024 1024" version="1.1" xmlns="http://www.w3.org/2000/svg"><path fill="currentColor" d="M832 64a64 64 0 0 1 64 64v768a64 64 0 0 1-64 64h-224a96 96 0 0 0-191.84-5.632L416 960H192a64 64 0 0 1-64-64V128a64 64 0 0 1 64-64h640z m0 64H192v768h173.312l2.048-4.48a160.096 160.096 0 0 1 137.6-91.36L512 800a160.032 160.032 0 0 1 146.112 94.72l0.544 1.28H832V128z m-192 384a32 32 0 0 1 0 64h-256a32 32 0 0 1 0-64h256z m0-192a32 32 0 0 1 0 64h-256a32 32 0 0 1 0-64h256z" /></svg>