<?xml version="1.0" standalone="no"?><!DOCTYPE svg PUBLIC "-//W3C//DTD SVG 1.1//EN" "http://www.w3.org/Graphics/SVG/1.1/DTD/svg11.dtd"><svg class="icon" width="200px" height="200.00px" viewBox="0 0 1024 1024" version="1.1" xmlns="http://www.w3.org/2000/svg"><path fill="currentColor" d="M832 64a64 64 0 0 1 64 64v768a64 64 0 0 1-64 64h-224a96 96 0 0 0-191.84-5.632L416 960H192a64 64 0 0 1-64-64V128a64 64 0 0 1 64-64h640z m-192 448h-256a32 32 0 0 0 0 64h256a32 32 0 0 0 0-64z m0-192h-256a32 32 0 0 0 0 64h256a32 32 0 0 0 0-64z" /></svg>