<?xml version="1.0" standalone="no"?><!DOCTYPE svg PUBLIC "-//W3C//DTD SVG 1.1//EN" "http://www.w3.org/Graphics/SVG/1.1/DTD/svg11.dtd"><svg class="icon" width="200px" height="200.00px" viewBox="0 0 1024 1024" version="1.1" xmlns="http://www.w3.org/2000/svg"><path fill="currentColor" d="M921.6 610.912a32 32 0 0 1 31.776 28.256l0.224 3.744v133.568c0 54.272-38.784 99.968-89.536 103.04l-5.472 0.192H165.408c-51.552 0-92.128-43.84-94.848-97.472l-0.16-5.76V642.88a32 32 0 0 1 63.776-3.744l0.224 3.744v133.568c0 20.992 12.896 36.96 27.808 39.04l3.2 0.192h693.184c15.104 0 29.024-14.592 30.816-34.816l0.192-4.416V642.88a32 32 0 0 1 32-32zM514.144 130.272a32 32 0 0 1 32 32v408.32l134.816-134.848 2.976-2.656a34.144 34.144 0 0 1 45.28 50.944l-165.504 165.504-3.84 3.552c-28.704 24.96-72.256 23.776-99.584-3.552l-165.504-165.504-2.656-2.976a34.144 34.144 0 0 1 50.912-45.312l134.784 134.848 0.032-408.32a32 32 0 0 1 32-32z" /></svg>