<?xml version="1.0" standalone="no"?><!DOCTYPE svg PUBLIC "-//W3C//DTD SVG 1.1//EN" "http://www.w3.org/Graphics/SVG/1.1/DTD/svg11.dtd"><svg class="icon" width="200px" height="200.00px" viewBox="0 0 1024 1024" version="1.1" xmlns="http://www.w3.org/2000/svg"><path fill="currentColor" d="M908.8 857.44c7.04 0 12.8 5.728 12.8 12.8v42.656a12.8 12.8 0 0 1-12.8 12.8H115.2a12.8 12.8 0 0 1-12.8-12.8v-42.656c0-7.072 5.76-12.8 12.8-12.8h793.6zM773.344 128.64a35.2 35.2 0 0 1 48.96-0.032l85.44 82.496c13.952 13.536 14.336 35.84 0.448 50.176l-526.24 510.08-135.36 43.328a35.2 35.2 0 0 1-44.064-44.864l44.704-131.264z m24.512 65.344L302.848 673.728 281.6 736.256l66.56-21.312L841.824 236.48l-43.968-42.496z" /></svg>