<?xml version="1.0" standalone="no"?>
<!DOCTYPE svg PUBLIC "-//W3C//DTD SVG 1.1//EN" "http://www.w3.org/Graphics/SVG/1.1/DTD/svg11.dtd">
<svg class="icon" width="200px" height="200.00px" viewBox="0 0 1024 1024" version="1.1" xmlns="http://www.w3.org/2000/svg">
    <path fill="currentColor" d="M832 96H192a96 96 0 0 0-96 96v640a96 96 0 0 0 96 96h640a96 96 0 0 0 96-96V192a96 96 0 0 0-96-96zM192 160h640a32 32 0 0 1 32 32v640a32 32 0 0 1-32 32H192a32 32 0 0 1-32-32V192a32 32 0 0 1 32-32zM722.432 311.168a96 96 0 0 0-135.776 0l-270.144 270.144a38.4 38.4 0 0 0-10.528 19.616l-17.536 87.712a48 48 0 0 0 56.48 56.48l87.712-17.536a38.4 38.4 0 0 0 19.616-10.496l270.176-270.176a96 96 0 0 0 0-135.744z m-42.784 48.032a32 32 0 0 1-2.496 42.464l-264.64 264.64-56.576 11.328 11.296-56.544 264.672-264.672a32 32 0 0 1 45.248 0l2.496 2.784z" />
</svg>