<svg class="icon" viewBox="0 0 1024 1024" version="1.1" xmlns="http://www.w3.org/2000/svg" p-id="2658" xmlns:xlink="http://www.w3.org/1999/xlink" width="200" height="200"><defs><style type="text/css"></style></defs><path d="M886.592 288.704c6.016 5.984 9.408 14.08 9.408 22.592V928c0 17.696-14.304 32-32 32H160c-17.696 0-32-14.304-32-32V96c0-17.696 14.304-32 32-32h488.704c8.512 0 16.704 3.392 22.72 9.408l215.168 215.296z" fill="#FF8929" p-id="2659"></path><path d="M446.144 800v-124.544h82.88c76.608 0 115.136-32.704 115.136-98.112 0-64.96-38.08-97.216-114.24-97.216h-132.608V800h48.832z m79.744-166.208h-79.744v-112h79.744c23.744 0 41.216 4.48 52.416 13.44 11.2 8.064 17.024 22.4 17.024 42.112 0 19.712-5.824 34.048-16.576 43.008-11.2 8.96-28.672 13.44-52.864 13.44z" fill="#FFFFFF" p-id="2660"></path><path d="M826.88 266.688L693.312 133.12a16 16 0 0 0-27.328 11.296v133.6a16 16 0 0 0 16 16h133.6a16 16 0 0 0 11.296-27.328z" fill="#FFE4CE" p-id="2661"></path></svg>