<svg class="icon" viewBox="0 0 1024 1024" version="1.1" xmlns="http://www.w3.org/2000/svg" p-id="2386" xmlns:xlink="http://www.w3.org/1999/xlink" width="200" height="200"><defs><style type="text/css"></style></defs><path d="M886.592 288.704c6.016 5.984 9.408 14.08 9.408 22.592V928c0 17.696-14.304 32-32 32H160c-17.696 0-32-14.304-32-32V96c0-17.696 14.304-32 32-32h488.704c8.512 0 16.704 3.392 22.72 9.408l215.168 215.296z" fill="#77DE18" p-id="2387"></path><path d="M426.432 800L512 673.216 597.568 800h59.584l-116.032-165.312 108.416-154.56h-59.584L512 595.712l-77.952-115.584h-59.584l107.52 154.56L366.848 800z" fill="#FFFFFF" p-id="2388"></path><path d="M826.88 266.688L693.312 133.12a16 16 0 0 0-27.328 11.296v133.6a16 16 0 0 0 16 16h133.6a16 16 0 0 0 11.296-27.328z" fill="#CCF9A2" p-id="2389"></path></svg>