<svg class="icon" viewBox="0 0 1024 1024" version="1.1" xmlns="http://www.w3.org/2000/svg" p-id="1978" xmlns:xlink="http://www.w3.org/1999/xlink" width="200" height="200"><defs><style type="text/css"></style></defs><path d="M886.592 288.704c6.016 5.984 9.408 14.08 9.408 22.592V928c0 17.696-14.304 32-32 32H160c-17.696 0-32-14.304-32-32V96c0-17.696 14.304-32 32-32h488.704c8.512 0 16.704 3.392 22.72 9.408l215.168 215.296z" fill="#DDDDDD" p-id="1979"></path><path d="M826.88 266.688L693.312 133.12a16 16 0 0 0-27.328 11.296v133.6a16 16 0 0 0 16 16h133.6a16 16 0 0 0 11.296-27.328z" fill="#E7E7E7" p-id="1980"></path><path d="M502.688 614.848v-7.392c0-10.432 2.176-20 6.944-28.704 3.904-7.808 10.016-15.648 18.24-22.592 20.48-17.824 32.64-29.12 36.544-33.92 10.88-13.92 16.512-31.744 16.512-53.024 0-26.08-8.704-46.976-26.08-62.176-17.376-15.68-40-23.04-67.84-23.04-32.16 0-57.376 9.12-75.616 27.84-18.24 18.24-27.392 43.008-27.392 74.752h45.632c0-19.136 3.936-33.92 11.744-44.352 8.704-12.608 23.04-18.688 42.624-18.688 15.648 0 28.256 4.352 36.928 13.056 8.256 8.672 12.608 20.416 12.608 35.648 0 11.296-4.352 21.728-12.16 31.712l-7.392 8.288c-26.944 23.904-43.488 41.728-49.12 53.888-6.08 11.296-8.704 25.216-8.704 41.28v7.424h46.528z m-23.488 85.632c8.704 0 16.512-3.04 22.624-8.704a30.848 30.848 0 0 0 9.536-22.592 28.864 28.864 0 0 0-9.12-22.176c-6.08-6.08-13.92-8.704-23.04-8.704a30.784 30.784 0 0 0-22.592 8.704 28.864 28.864 0 0 0-9.152 22.176c0 8.672 3.072 16.064 9.152 22.176 6.08 6.08 13.888 9.12 22.592 9.12z" fill="#858585" p-id="1981"></path></svg>