<svg class="icon" viewBox="0 0 1024 1024" version="1.1" xmlns="http://www.w3.org/2000/svg" width="200" height="200"><path d="M886.592 288.704c6.016 5.984 9.408 14.08 9.408 22.592V928c0 17.696-14.304 32-32 32H160c-17.696 0-32-14.304-32-32V96c0-17.696 14.304-32 32-32h488.704c8.512 0 16.704 3.392 22.72 9.408l215.168 215.296z" fill="#25D231" p-id="3963"></path><path d="M826.88 266.688L693.312 133.12a16 16 0 0 0-27.328 11.296v133.6a16 16 0 0 0 16 16h133.6a16 16 0 0 0 11.296-27.328z" fill="#A6E6AB" p-id="3964"></path><path d="M625.6 412.288l-211.68 35.36a9.728 9.728 0 0 0-1.92 0.544h-7.68a9.28 9.28 0 0 0-9.344 9.28v241.984a56.128 56.128 0 0 0-84.288 48.576c0 30.944 25.152 56.032 56.192 56.032a56.128 56.128 0 0 0 55.808-62.72 9.408 9.408 0 0 0 0.384-2.72v-196.8l196.672-34.656v136.192a56.128 56.128 0 0 0-84.288 48.576c0 30.944 25.152 56.064 56.192 56.064a56.128 56.128 0 0 0 55.776-62.72 9.408 9.408 0 0 0 0.416-2.72v-261.632a9.312 9.312 0 0 0-7.68-9.152 7.936 7.936 0 0 0-5.6-0.992l-4.96 0.832h-0.512a9.664 9.664 0 0 0-3.52 0.64z" fill="#FFFFFF" p-id="3965"></path></svg>