<svg class="icon" viewBox="0 0 1024 1024" version="1.1" xmlns="http://www.w3.org/2000/svg" p-id="2522" xmlns:xlink="http://www.w3.org/1999/xlink" width="200" height="200"><defs><style type="text/css"></style></defs><path d="M886.592 288.704c6.016 5.984 9.408 14.08 9.408 22.592V928c0 17.696-14.304 32-32 32H160c-17.696 0-32-14.304-32-32V96c0-17.696 14.304-32 32-32h488.704c8.512 0 16.704 3.392 22.72 9.408l215.168 215.296z" fill="#1B99FF" p-id="2523"></path><path d="M434.496 800l64.96-246.848h1.792L566.208 800h51.968l92.288-319.872H655.36l-62.272 249.088h-1.792l-65.408-249.088h-51.072l-65.408 249.088h-1.792l-62.272-249.088H290.24L382.08 800z" fill="#FFFFFF" p-id="2524"></path><path d="M826.88 266.688L693.312 133.12a16 16 0 0 0-27.328 11.296v133.6a16 16 0 0 0 16 16h133.6a16 16 0 0 0 11.296-27.328z" fill="#87CAFF" p-id="2525"></path></svg>