<svg class="icon" viewBox="0 0 1024 1024" version="1.1" xmlns="http://www.w3.org/2000/svg" p-id="2114" xmlns:xlink="http://www.w3.org/1999/xlink" width="200" height="200"><defs><style type="text/css"></style></defs><path d="M886.592 288.704c6.016 5.984 9.408 14.08 9.408 22.592V928c0 17.696-14.304 32-32 32H160c-17.696 0-32-14.304-32-32V96c0-17.696 14.304-32 32-32h488.704c8.512 0 16.704 3.392 22.72 9.408l215.168 215.296z" fill="#ABABAB" p-id="2115"></path><path d="M415.04 736v-28.16h-21.76c-4.16 0-7.04-1.28-8.96-3.2-1.92-2.24-2.88-5.44-2.88-9.92v-96h37.76v-28.16h-37.76v-53.44l-33.92 14.08v39.36H316.8v28.16h30.72v96c0 13.12 2.88 23.04 9.28 30.08 6.4 7.36 16.96 11.2 31.04 11.2h27.2z m53.76 0l43.52-63.04L555.52 736h39.68l-64.32-88 57.28-77.44h-39.68l-36.16 52.48-36.48-52.48h-39.68l57.28 77.44L428.8 736h40z m231.04 0v-28.16h-21.76c-4.16 0-7.04-1.28-8.96-3.2-1.92-2.24-2.88-5.44-2.88-9.92v-96H704v-28.16h-37.76v-53.44l-33.92 14.08v39.36h-30.72v28.16h30.72v96c0 13.12 2.88 23.04 9.28 30.08 6.4 7.36 16.96 11.2 31.04 11.2h27.2z" fill="#FFFFFF" p-id="2116"></path><path d="M826.88 266.688L693.312 133.12a16 16 0 0 0-27.328 11.296v133.6a16 16 0 0 0 16 16h133.6a16 16 0 0 0 11.296-27.328z" fill="#E7E7E7" p-id="2117"></path></svg>