<svg class="icon" viewBox="0 0 1024 1024" version="1.1" xmlns="http://www.w3.org/2000/svg" width="200" height="200"><path d="M886.592 288.704c6.016 5.984 9.408 14.08 9.408 22.592V928c0 17.696-14.304 32-32 32H160c-17.696 0-32-14.304-32-32V96c0-17.696 14.304-32 32-32h488.704c8.512 0 16.704 3.392 22.72 9.408l215.168 215.296z" fill="#1B99FF" p-id="4099"></path><path d="M826.88 266.688L693.312 133.12a16 16 0 0 0-27.328 11.296v133.6a16 16 0 0 0 16 16h133.6a16 16 0 0 0 11.296-27.328z" fill="#88CAFF" p-id="4100"></path><path d="M417.28 443.776a189.536 189.536 0 1 1 189.568 328.288 189.536 189.536 0 0 1-189.536-328.32zM460.544 512a0.576 0.576 0 0 0-0.288 0.512v190.72c0 0.448 0.512 0.736 0.896 0.512l165.152-95.36a0.576 0.576 0 0 0 0-1.024l-165.152-95.36a0.576 0.576 0 0 0-0.608 0z" fill="#FFFFFF" p-id="4101"></path></svg>