<svg class="icon" viewBox="0 0 1024 1024" version="1.1" xmlns="http://www.w3.org/2000/svg" xmlns:xlink="http://www.w3.org/1999/xlink" width="200" height="200"><path d="M891.712 136.544a64 64 0 0 1 64 64v657.056a64 64 0 0 1-64 64H132.256a64 64 0 0 1-64-64V200.544a64 64 0 0 1 64-64h759.456z" fill="#1BA9FF" p-id="2251"></path><path d="M763.616 457.088a96 96 0 0 1 19.104 17.856l3.968 5.216 145.536 206.24v110.976l-197.824-280.32a32 32 0 0 0-2.24-2.848l-2.592-2.56-2.88-2.24a32 32 0 0 0-42.048 4.512l-2.528 3.136L408.544 904.544H330.272l299.552-424.384a96 96 0 0 1 133.792-23.04z" fill="#FFFFFF" p-id="2252"></path><path d="M290.112 426.688m-85.344 0a85.344 85.344 0 1 0 170.688 0 85.344 85.344 0 1 0-170.688 0Z" fill="#FFFFFF" p-id="2253"></path></svg>