<?xml version="1.0" standalone="no"?><!DOCTYPE svg PUBLIC "-//W3C//DTD SVG 1.1//EN" "http://www.w3.org/Graphics/SVG/1.1/DTD/svg11.dtd"><svg class="icon" width="200px" height="200.00px" viewBox="0 0 1024 1024" version="1.1" xmlns="http://www.w3.org/2000/svg"><path fill="currentColor" d="M511.872 102.4a64 64 0 0 1 53.248 28.48L614.4 204.8h277.344a64 64 0 0 1 64 64v588.8a64 64 0 0 1-64 64H132.256a64 64 0 0 1-64-64V166.4a64 64 0 0 1 64-64h379.616z m0 64H132.256v691.2h759.488V268.8H614.4a64 64 0 0 1-50.112-24.192l-3.136-4.288-49.28-73.92z m307.328 209.056v68.288H477.856v-68.288H819.2z" /></svg>