<?xml version="1.0" standalone="no"?><!DOCTYPE svg PUBLIC "-//W3C//DTD SVG 1.1//EN" "http://www.w3.org/Graphics/SVG/1.1/DTD/svg11.dtd"><svg class="icon" width="200px" height="200.00px" viewBox="0 0 1024 1024" version="1.1" xmlns="http://www.w3.org/2000/svg"><path fill="currentColor" d="M832 608v32H192v-32h640zM192 192a64 64 0 0 1 64-64h512a64 64 0 0 1 64 64v229.44l-320.032 98.432L192 421.44V192zM835.776 484.256l-323.808 99.616-323.744-99.616A96 96 0 0 0 64 576.032v265.344a96 96 0 0 0 96 96h704a96 96 0 0 0 96-96V576a96 96 0 0 0-124.224-91.776z" /></svg>