<?xml version="1.0" standalone="no"?><!DOCTYPE svg PUBLIC "-//W3C//DTD SVG 1.1//EN" "http://www.w3.org/Graphics/SVG/1.1/DTD/svg11.dtd"><svg class="icon" width="200px" height="200.00px" viewBox="0 0 1024 1024" version="1.1" xmlns="http://www.w3.org/2000/svg"><path fill="currentColor" d="M891.072 512v321.088c0 49.696-46.272 89.984-103.36 89.984H236.288c-57.12 0-103.392-40.288-103.392-89.984L132.896 512h758.176zM615.36 96a137.856 137.856 0 0 1 137.696 130.976l0.16 6.88h103.392a103.36 103.36 0 0 1 0 206.752H167.392a103.36 103.36 0 0 1 0-206.752h103.36a137.856 137.856 0 0 1 237.568-95.2L512 142.72l3.68-4.032a137.44 137.44 0 0 1 92.8-42.496L615.424 96z m68.96 137.856a68.928 68.928 0 0 0-137.664-5.152l-0.192 5.12h137.856z m-275.712-68.928a68.928 68.928 0 0 0-68.736 63.776l-0.192 5.12h137.856c0-38.048-30.848-68.896-68.928-68.896z" /></svg>