<?xml version="1.0" standalone="no"?><!DOCTYPE svg PUBLIC "-//W3C//DTD SVG 1.1//EN" "http://www.w3.org/Graphics/SVG/1.1/DTD/svg11.dtd"><svg class="icon" width="200px" height="200.00px" viewBox="0 0 1024 1024" version="1.1" xmlns="http://www.w3.org/2000/svg"><path fill="currentColor" d="M728 128c54.72 0 100.736 39.232 103.84 90.464L832 224v252.032l3.776-1.12a96 96 0 0 1 118.176 58.176l1.792 5.344a96 96 0 0 1 4.256 28.224V832a96 96 0 0 1-96 96H160a96 96 0 0 1-96-96v-265.344a96 96 0 0 1 124.224-91.744l3.776 1.12V224c0-52.064 44.16-93.088 98.176-95.84L296 128h432zM160 534.656a32 32 0 0 0-32 32V832a32 32 0 0 0 32 32h704a32 32 0 0 0 32-32v-265.344a32 32 0 0 0-41.408-30.592L512 641.472 169.408 536.064A32 32 0 0 0 160 534.656zM728 192H296c-21.344 0-37.696 13.248-39.776 28.672L256 224v271.712l255.968 78.784L768 495.712V224c0-15.68-14.912-29.952-35.52-31.808L728 192z" /></svg>