<?xml version="1.0" standalone="no"?><!DOCTYPE svg PUBLIC "-//W3C//DTD SVG 1.1//EN" "http://www.w3.org/Graphics/SVG/1.1/DTD/svg11.dtd"><svg class="icon" width="200px" height="200.00px" viewBox="0 0 1024 1024" version="1.1" xmlns="http://www.w3.org/2000/svg"><path fill="currentColor" d="M615.36 96a137.856 137.856 0 0 1 137.696 130.976l0.16 6.88h103.392a103.36 103.36 0 0 1 34.496 200.864v384.96a103.36 103.36 0 0 1-103.424 103.392H236.32a103.36 103.36 0 0 1-103.392-103.36v-384.96A103.424 103.424 0 0 1 167.36 233.824h103.36a137.856 137.856 0 0 1 237.568-95.2L512 142.72l3.68-4.032a137.44 137.44 0 0 1 92.8-42.496L615.424 96z m206.784 344.64H201.856v379.04c0 17.696 13.28 32.256 30.432 34.24l4.032 0.224h551.36c19.04 0 34.464-15.424 34.464-34.464V440.64z m34.464-137.856H167.392a34.464 34.464 0 1 0 0 68.896h689.216a34.464 34.464 0 0 0 0-68.896z m-172.288-68.928a68.928 68.928 0 0 0-137.664-5.152l-0.192 5.12h137.856z m-275.712-68.928a68.928 68.928 0 0 0-68.736 63.776l-0.192 5.12h137.856c0-38.048-30.848-68.896-68.928-68.896z" /></svg>