<?xml version="1.0" standalone="no"?><!DOCTYPE svg PUBLIC "-//W3C//DTD SVG 1.1//EN" "http://www.w3.org/Graphics/SVG/1.1/DTD/svg11.dtd"><svg class="icon" width="200px" height="200.00px" viewBox="0 0 1024 1024" version="1.1" xmlns="http://www.w3.org/2000/svg"><path fill="currentColor" d="M460.224 111.168a96 96 0 0 1 103.552 0l320 204.928A96 96 0 0 1 928 396.928V841.92a96 96 0 0 1-96 96H192a96 96 0 0 1-96-96V396.928a96 96 0 0 1 44.224-80.832zM512 596a32 32 0 0 0-32 32v192a32 32 0 1 0 64 0v-192a32 32 0 0 0-32-32z" /></svg>