<?xml version="1.0" standalone="no"?><!DOCTYPE svg PUBLIC "-//W3C//DTD SVG 1.1//EN" "http://www.w3.org/Graphics/SVG/1.1/DTD/svg11.dtd"><svg class="icon" width="200px" height="200.00px" viewBox="0 0 1024 1024" version="1.1" xmlns="http://www.w3.org/2000/svg"><path fill="currentColor" d="M132.256 921.6a64 64 0 0 1-64-64V200.544a64 64 0 0 1 64-64h759.488a64 64 0 0 1 64 64V857.6a64 64 0 0 1-33.184 56.096 38.112 38.112 0 0 1-23.296 7.904H132.256zM891.744 200.544H132.256V857.6h156.096l269.184-348.32a64 64 0 0 1 101.312 0l232.864 301.408V200.544z m-283.52 347.84L369.216 857.6h477.856l-238.912-309.184z m-318.08-207.04a85.344 85.344 0 1 1 0 170.656 85.344 85.344 0 0 1 0-170.656z" /></svg>