<?xml version="1.0" standalone="no"?>
<!DOCTYPE svg PUBLIC "-//W3C//DTD SVG 1.1//EN" "http://www.w3.org/Graphics/SVG/1.1/DTD/svg11.dtd">
<svg class="icon" width="200px" height="200.00px" viewBox="0 0 1024 1024" version="1.1" xmlns="http://www.w3.org/2000/svg">
    <path fill="currentColor" d="M891.728 136.528a64 64 0 0 1 64 64V857.6a64 64 0 0 1-64 64H489.84l29.632-64h295.056a16 16 0 0 0 12.656-25.792L620.848 564.784a16 16 0 0 0-25.312 0l-6.688 8.64-103.264-146.752 120-282.144-211.92 255.712 143.792 239.68-50.72 65.632L295.472 921.6h-163.2a64 64 0 0 1-64-64V200.528a64 64 0 0 1 64-64h759.456z m-601.6 204.8a85.328 85.328 0 1 0 0 170.672 85.328 85.328 0 0 0 0-170.672z" />
</svg>