<?xml version="1.0" standalone="no"?><!DOCTYPE svg PUBLIC "-//W3C//DTD SVG 1.1//EN" "http://www.w3.org/Graphics/SVG/1.1/DTD/svg11.dtd"><svg class="icon" width="200px" height="200.00px" viewBox="0 0 1024 1024" version="1.1" xmlns="http://www.w3.org/2000/svg"><path fill="currentColor" d="M891.744 136.544a64 64 0 0 1 64 64V857.6a64 64 0 0 1-64 64H132.256a64 64 0 0 1-64-64V200.544a64 64 0 0 1 64-64h759.488z m-303.104 438.88a32 32 0 0 0-5.76 5.76l-173.76 224.832a32 32 0 0 0 25.28 51.584h347.52a32 32 0 0 0 25.344-51.584l-173.76-224.832a32 32 0 0 0-44.864-5.76z m-298.496-234.08a85.344 85.344 0 1 0 0 170.656 85.344 85.344 0 0 0 0-170.656z" /></svg>