<?xml version="1.0" standalone="no"?><!DOCTYPE svg PUBLIC "-//W3C//DTD SVG 1.1//EN" "http://www.w3.org/Graphics/SVG/1.1/DTD/svg11.dtd"><svg class="icon" width="200px" height="200.00px" viewBox="0 0 1024 1024" version="1.1" xmlns="http://www.w3.org/2000/svg"><path fill="currentColor" d="M507.744 64c245.056 0 443.712 198.656 443.712 443.744 0 245.056-198.656 443.712-443.712 443.712C262.656 951.456 64 752.8 64 507.744 64 262.656 262.656 64 507.744 64z m0 64C298.016 128 128 298.016 128 507.744c0 209.696 170.016 379.712 379.744 379.712 209.696 0 379.712-170.016 379.712-379.712C887.456 298.016 717.44 128 507.744 128z m2.4 496.96c12.096 0 22.464 3.456 30.528 11.52 8.064 7.488 12.096 17.28 12.096 29.376s-4.608 21.888-12.672 29.952c-8.064 7.488-18.432 11.52-29.952 11.52a41.28 41.28 0 0 1-29.952-12.096 40 40 0 0 1-12.096-29.376c0-12.096 4.032-21.888 12.096-29.376 8.064-8.064 18.432-11.52 29.952-11.52zM520.512 288c36.864 0 66.816 9.792 89.856 30.528 23.04 20.16 34.56 47.808 34.56 82.368 0 28.224-7.488 51.84-21.888 70.272-5.184 6.336-21.312 21.312-48.384 44.928a95.68 95.68 0 0 0-24.192 29.952c-6.336 11.52-9.216 24.192-9.216 38.016v9.792h-61.632v-9.792c0-21.312 3.456-39.744 11.52-54.72 7.488-16.128 29.376-39.744 65.088-71.424l9.792-10.944c10.368-13.248 16.128-27.072 16.128-42.048 0-20.16-5.76-35.712-16.704-47.232-11.52-11.52-28.224-17.28-48.96-17.28-25.92 0-44.928 8.064-56.448 24.768-10.368 13.824-15.552 33.408-15.552 58.752-6.176 33.984-60.48 25.344-60.48 0 0-42.048 12.096-74.88 36.288-99.072C444.48 300.096 477.888 288 520.512 288z" /></svg>