<?xml version="1.0" standalone="no"?>
<!DOCTYPE svg PUBLIC "-//W3C//DTD SVG 1.1//EN" "http://www.w3.org/Graphics/SVG/1.1/DTD/svg11.dtd">
<svg class="icon" width="200px" height="200.00px" viewBox="0 0 1024 1024" version="1.1" xmlns="http://www.w3.org/2000/svg">
    <path fill="currentColor" d="M524.16 160l24.096 0.384c7.968 0.192 15.872 0.48 23.712 0.8l23.328 1.152 11.52 0.736 22.656 1.728 11.2 0.992 21.952 2.304 10.784 1.28 21.152 2.816 20.608 3.2 20 3.52C869.76 204.256 960 253.76 960 319.936c0 37.888-29.504 70.272-79.936 95.808 50.88 25.088 79.936 56.96 79.936 96.192 0 37.888-29.536 70.304-80 95.84 50.88 25.056 80 56.864 80 96.16 0 66.24-90.272 115.712-224.832 141.056l-20 3.52-20.608 3.2-21.152 2.816-10.784 1.28-21.984 2.272-11.168 1.024-22.656 1.728-11.52 0.736-23.328 1.152c-7.84 0.32-15.744 0.576-23.712 0.8l-24.096 0.384-12.16 0.032-12.16-0.032-24.096-0.384a1413.824 1413.824 0 0 1-23.712-0.8l-23.328-1.152-11.52-0.736-22.656-1.728c-3.744-0.32-7.488-0.64-11.2-1.024l-21.952-2.272a1120.288 1120.288 0 0 1-10.784-1.28l-21.152-2.816-20.608-3.2-20-3.52C154.24 819.648 64 770.176 64 703.936c0-39.424 29.344-71.104 80.128-96.128C93.568 582.272 64 549.856 64 511.936c0-39.264 29.12-71.104 80-96.192-50.464-25.536-80-57.92-80-95.808C64 253.76 154.272 204.256 288.832 178.912l20-3.52 20.608-3.2 21.152-2.816 10.784-1.28 21.984-2.304 11.168-0.992 22.656-1.728 11.52-0.736 23.328-1.152c7.84-0.32 15.744-0.608 23.712-0.8L499.84 160h24.32zM236.416 641.28l-11.968 3.616c-6.688 2.112-13.088 4.256-19.2 6.496C153.632 670.144 128 691.264 128 703.936c0 15.04 34.176 39.904 99.264 59.936 74.24 22.848 175.904 36.064 284.736 36.064 108.8 0 210.496-13.216 284.736-36.064C861.824 743.84 896 719.04 896 703.936c0-15.456-35.84-40.96-103.424-61.184l-5.056-1.44a775.36 775.36 0 0 1-52.352 11.68l-20 3.52-20.608 3.2-21.152 2.816-10.784 1.28-21.984 2.272-11.168 1.024-22.656 1.728-11.52 0.736-23.328 1.152c-7.84 0.32-15.744 0.576-23.712 0.8l-24.096 0.384-12.16 0.032-12.16-0.032-24.096-0.384a1413.824 1413.824 0 0 1-23.712-0.8l-23.328-1.152-11.52-0.736-22.656-1.728c-3.744-0.32-7.488-0.64-11.2-1.024l-21.952-2.272a1120.288 1120.288 0 0 1-10.784-1.28l-21.152-2.816-20.608-3.2-20-3.52c-18.336-3.456-35.84-7.36-52.416-11.68z m551.168-192l-2.944 0.8c-15.68 4-32.224 7.68-49.472 10.88l-20 3.552-20.608 3.2-21.152 2.816-10.784 1.28-21.984 2.272-11.168 1.024-22.656 1.728-11.52 0.736-23.328 1.152c-7.84 0.32-15.744 0.576-23.712 0.8l-24.096 0.384-12.16 0.032-12.16-0.032-24.096-0.384a1413.824 1413.824 0 0 1-23.712-0.8l-23.328-1.152-11.52-0.736-22.656-1.728c-3.744-0.32-7.488-0.64-11.2-1.024l-21.952-2.272a1120.288 1120.288 0 0 1-10.784-1.28l-21.152-2.816-20.608-3.2-20-3.52c-18.336-3.456-35.84-7.36-52.384-11.68l1.952-0.576C166.624 469.12 128 495.744 128 511.936c0 15.04 34.176 39.904 99.264 59.936 74.24 22.848 175.904 36.064 284.736 36.064 108.8 0 210.496-13.216 284.736-36.064C861.824 551.84 896 527.04 896 511.936c0-16.384-38.4-42.4-108.416-62.624zM512 223.968c-108.8 0-210.496 13.248-284.736 36.096C162.176 280.064 128 304.896 128 319.936c0 15.04 34.176 39.904 99.264 59.936 74.24 22.848 175.904 36.064 284.736 36.064 108.8 0 210.496-13.216 284.736-36.064C861.824 359.84 896 335.04 896 319.936c0-15.04-34.176-39.872-99.264-59.904-74.24-22.848-175.904-36.096-284.736-36.096z" />
</svg>