<?xml version="1.0" standalone="no"?>
<!DOCTYPE svg PUBLIC "-//W3C//DTD SVG 1.1//EN" "http://www.w3.org/Graphics/SVG/1.1/DTD/svg11.dtd">
<svg class="icon" width="200px" height="200.00px" viewBox="0 0 1024 1024" version="1.1" xmlns="http://www.w3.org/2000/svg">
    <path fill="currentColor" d="M598.912 97.12l6.08 1.184 224.192 51.744c20.672 4.768 37.12 20.096 43.52 40.096l1.28 4.672 51.712 224.224a89.632 89.632 0 0 1-19.744 79.04l-4.224 4.48L502.592 901.76a89.664 89.664 0 0 1-122.496 4.032l-4.288-4.032-253.568-253.568a89.664 89.664 0 0 1-4.032-122.464l4.032-4.32L521.408 122.272a89.632 89.632 0 0 1 77.504-25.152z m136.096 191.872a89.632 89.632 0 1 0-126.784 126.784A89.632 89.632 0 0 0 735.04 288.96z" />
</svg>