<?xml version="1.0" standalone="no"?>
<!DOCTYPE svg PUBLIC "-//W3C//DTD SVG 1.1//EN" "http://www.w3.org/Graphics/SVG/1.1/DTD/svg11.dtd">
<svg class="icon" width="200px" height="200.00px" viewBox="0 0 1024 1024" version="1.1" xmlns="http://www.w3.org/2000/svg">
    <path fill="currentColor" d="M829.184 150.048c20.672 4.768 37.12 20.096 43.52 40.096l1.28 4.672 51.712 224.224a89.632 89.632 0 0 1-19.744 79.04l-4.224 4.48L502.592 901.76a89.664 89.664 0 0 1-122.496 4.032l-4.288-4.032-253.568-253.568a89.664 89.664 0 0 1-4.032-122.464l4.032-4.32L521.408 122.272a89.632 89.632 0 0 1 77.504-25.152l6.08 1.184 224.192 51.744z m-13.44 58.24l-224.224-51.744a29.888 29.888 0 0 0-24.96 5.44l-2.88 2.56L164.48 563.648a29.888 29.888 0 0 0-2.496 39.456l2.496 2.784 253.568 253.568a29.888 29.888 0 0 0 39.424 2.496l2.816-2.496L859.52 460.32c6.4-6.4 9.472-15.232 8.608-24.064l-0.64-3.776-51.712-224.224zM735.008 288.96a89.632 89.632 0 1 1-126.784 126.784A89.632 89.632 0 0 1 735.04 288.96z m-42.24 42.24a29.888 29.888 0 1 0-42.272 42.272 29.888 29.888 0 0 0 42.24-42.24z" />
</svg>