<?xml version="1.0" standalone="no"?><!DOCTYPE svg PUBLIC "-//W3C//DTD SVG 1.1//EN" "http://www.w3.org/Graphics/SVG/1.1/DTD/svg11.dtd"><svg class="icon" width="200px" height="200.00px" viewBox="0 0 1024 1024" version="1.1" xmlns="http://www.w3.org/2000/svg"><path fill="currentColor" d="M904.544 763.744c7.04 0 12.8 5.728 12.8 12.8V832a12.8 12.8 0 0 1-12.8 12.8H119.456a12.8 12.8 0 0 1-12.8-12.8v-55.456c0-7.072 5.76-12.8 12.8-12.8h785.088z m0-283.744c7.04 0 12.8 5.76 12.8 12.8v55.456a12.8 12.8 0 0 1-12.8 12.8H119.456a12.8 12.8 0 0 1-12.8-12.8V492.8c0-7.04 5.76-12.8 12.8-12.8h785.088z m0-283.744c7.04 0 12.8 5.76 12.8 12.8v55.488a12.8 12.8 0 0 1-12.8 12.8H119.456a12.8 12.8 0 0 1-12.8-12.8V209.056c0-7.04 5.76-12.8 12.8-12.8h785.088z" /></svg>