<?xml version="1.0" standalone="no"?>
<!DOCTYPE svg PUBLIC "-//W3C//DTD SVG 1.1//EN" "http://www.w3.org/Graphics/SVG/1.1/DTD/svg11.dtd">
<svg class="icon" width="200px" height="200.00px" viewBox="0 0 1024 1024" version="1.1" xmlns="http://www.w3.org/2000/svg">
    <path fill="currentColor" d="M800 64H224a96 96 0 0 0-96 96v704a96 96 0 0 0 96 96h576a96 96 0 0 0 96-96V160a96 96 0 0 0-96-96zM224 128h576a32 32 0 0 1 32 32v704a32 32 0 0 1-32 32H224a32 32 0 0 1-32-32V160a32 32 0 0 1 32-32zM320 320m32 0l320 0q32 0 32 32l0 0q0 32-32 32l-320 0q-32 0-32-32l0 0q0-32 32-32ZM352 480h192a32 32 0 0 1 0 64h-192a32 32 0 0 1 0-64z" />
</svg>