<?xml version="1.0" standalone="no"?>
<!DOCTYPE svg PUBLIC "-//W3C//DTD SVG 1.1//EN" "http://www.w3.org/Graphics/SVG/1.1/DTD/svg11.dtd">
<svg class="icon" width="200px" height="200.00px" viewBox="0 0 1024 1024" version="1.1" xmlns="http://www.w3.org/2000/svg">
    <path fill="currentColor" d="M507.744 64c245.056 0 443.712 198.656 443.712 443.744 0 245.056-198.656 443.712-443.712 443.712C262.656 951.456 64 752.8 64 507.744 64 262.656 262.656 64 507.744 64zM473.6 352h-51.2a6.4 6.4 0 0 0-6.4 6.4v307.2c0 3.52 2.88 6.4 6.4 6.4h51.2a6.4 6.4 0 0 0 6.4-6.4v-307.2a6.4 6.4 0 0 0-6.4-6.4z m128 0h-51.2a6.4 6.4 0 0 0-6.4 6.4v307.2c0 3.52 2.88 6.4 6.4 6.4h51.2a6.4 6.4 0 0 0 6.4-6.4v-307.2a6.4 6.4 0 0 0-6.4-6.4z" />
</svg>