<?xml version="1.0" standalone="no"?><!DOCTYPE svg PUBLIC "-//W3C//DTD SVG 1.1//EN" "http://www.w3.org/Graphics/SVG/1.1/DTD/svg11.dtd"><svg class="icon" width="200px" height="200.00px" viewBox="0 0 1024 1024" version="1.1" xmlns="http://www.w3.org/2000/svg"><path fill="currentColor" d="M699.744 546.144a187.744 187.744 0 0 1 187.712 187.712V889.6a32 32 0 0 1-32 32H168.544a32 32 0 0 1-32-32v-155.744a187.744 187.744 0 0 1 187.712-187.712h375.488z m0 64H324.256a123.744 123.744 0 0 0-123.552 117.344l-0.16 6.4V857.6h622.912v-123.744a123.744 123.744 0 0 0-117.344-123.552l-6.4-0.16zM514.624 102.4a204.8 204.8 0 1 1 0 409.6 204.8 204.8 0 0 1 0-409.6z m0 64a140.8 140.8 0 1 0 0 281.6 140.8 140.8 0 0 0 0-281.6z" /></svg>