<?xml version="1.0" standalone="no"?>
<!DOCTYPE svg PUBLIC "-//W3C//DTD SVG 1.1//EN" "http://www.w3.org/Graphics/SVG/1.1/DTD/svg11.dtd">
<svg class="icon" width="200px" height="200.00px" viewBox="0 0 1024 1024" version="1.1" xmlns="http://www.w3.org/2000/svg">
    <path fill="currentColor" d="M800 64a96 96 0 0 1 96 96v704a96 96 0 0 1-96 96H224a96 96 0 0 1-96-96V160a96 96 0 0 1 96-96z m0 64H224a32 32 0 0 0-32 32v704a32 32 0 0 0 32 32h576a32 32 0 0 0 32-32V160a32 32 0 0 0-32-32z m-288 576a64 64 0 1 1 0 128 64 64 0 0 1 0-128z" />
</svg>