<?xml version="1.0" standalone="no"?>
<!DOCTYPE svg PUBLIC "-//W3C//DTD SVG 1.1//EN" "http://www.w3.org/Graphics/SVG/1.1/DTD/svg11.dtd">
<svg class="icon" width="200px" height="200.00px" viewBox="0 0 1024 1024" version="1.1" xmlns="http://www.w3.org/2000/svg">
    <path fill="currentColor" d="M507.744 64c245.056 0 443.712 198.656 443.712 443.744 0 245.056-198.656 443.712-443.712 443.712C262.656 951.456 64 752.8 64 507.744 64 262.656 262.656 64 507.744 64z m0 64C298.016 128 128 298.016 128 507.744c0 209.696 170.016 379.712 379.744 379.712 209.696 0 379.712-170.016 379.712-379.712C887.456 298.016 717.44 128 507.744 128z m-59.104 240a17.92 17.92 0 0 1 10.816 3.552l190.72 145.216a13.664 13.664 0 0 1 1.824 20.864 15.84 15.84 0 0 1-1.824 1.6l-190.72 145.216a18.112 18.112 0 0 1-23.456-1.6 13.856 13.856 0 0 1-4-9.6v-290.464c0-8.16 7.456-14.784 16.64-14.784z" />
</svg>