<?xml version="1.0" standalone="no"?>
<!DOCTYPE svg PUBLIC "-//W3C//DTD SVG 1.1//EN" "http://www.w3.org/Graphics/SVG/1.1/DTD/svg11.dtd">
<svg class="icon" width="200px" height="200.00px" viewBox="0 0 1024 1024" version="1.1" xmlns="http://www.w3.org/2000/svg">
    <path fill="currentColor" d="M507.744 64c245.056 0 443.712 198.656 443.712 443.744 0 245.056-198.656 443.712-443.712 443.712C262.656 951.456 64 752.8 64 507.744 64 262.656 262.656 64 507.744 64z m-59.104 272c-9.184 0-16.64 6.624-16.64 14.784v290.432c0 3.52 1.408 6.944 4 9.6a18.112 18.112 0 0 0 23.456 1.6l190.72-145.184a15.84 15.84 0 0 0 1.824-1.6 13.664 13.664 0 0 0-1.824-20.864l-190.72-145.216a17.92 17.92 0 0 0-10.816-3.552z" />
</svg>