<?xml version="1.0" standalone="no"?><!DOCTYPE svg PUBLIC "-//W3C//DTD SVG 1.1//EN" "http://www.w3.org/Graphics/SVG/1.1/DTD/svg11.dtd"><svg class="icon" width="200px" height="200.00px" viewBox="0 0 1024 1024" version="1.1" xmlns="http://www.w3.org/2000/svg"><path fill="currentColor" d="M400.032 626.4l6.816 4.736C446.656 657.952 486.688 672 528 672l8.224-0.224c35.488-1.856 69.248-15.744 102.752-40.384l1.088-0.832 0.544 0.448C677.024 657.888 713.408 672 752 672a238.944 238.944 0 0 0 112-27.68V864a64 64 0 0 1-64 64H224a64 64 0 0 1-64-64l-0.032-219.712A238.944 238.944 0 0 0 272 672l8.832-0.224c38.176-1.856 75.296-15.68 111.968-40.32l7.232-5.056zM399.456 544l-7.36 6.752C350.4 588.288 310.656 608 272 608c-42.56 0-81.6-15.104-112.032-40.256L160 544h239.456zM864 544v23.776A175.264 175.264 0 0 1 752 608c-31.36 0-63.488-16.96-98.304-49.248l-7.008-6.656-6.688-6.656-7.04 7.008C595.68 588.768 561.376 608 528 608c-36.224 0-73.44-17.344-112.544-50.592l-7.872-6.848-7.168-6.56H864zM271.616 128l-6.016 0.192a96 96 0 0 0-84.032 62.496l-1.088 3.264-15.2 34.496-14.144 32.96-12.512 30.176-7.456 18.56-6.72 17.408-5.984 16.16-5.28 15.008-4.576 13.824-2.016 6.496-3.52 12.096C98.336 408.48 96 422.016 96 432A176 176 0 0 0 272 608c38.624 0 78.4-19.712 120.128-57.248l7.84-7.232 7.616 7.04C449.6 588.256 489.376 608 528 608c33.376 0 67.68-19.2 104.96-55.552l7.04-7.04 6.688 6.72C684.224 588.64 718.56 608 752 608a176 176 0 0 0 176-176l-0.096-3.456a166.208 166.208 0 0 0-5.504-31.776l-3.136-11.52a506.656 506.656 0 0 0-3.84-12.704l-4.608-13.824-5.28-15.008-5.984-16.16-6.72-17.376-7.456-18.56-8.16-19.84-8.896-21.024-19.968-45.888-4.864-10.912 0.832 2.464A96 96 0 0 0 752.384 128H271.616z" /></svg>