<?xml version="1.0" standalone="no"?><!DOCTYPE svg PUBLIC "-//W3C//DTD SVG 1.1//EN" "http://www.w3.org/Graphics/SVG/1.1/DTD/svg11.dtd"><svg class="icon" width="200px" height="200.00px" viewBox="0 0 1024 1024" version="1.1" xmlns="http://www.w3.org/2000/svg"><path fill="currentColor" d="M843.488 193.952l0.768 2.24-0.608-1.792 4.704 10.464 19.968 45.888 8.896 21.024 8.16 19.84 7.456 18.56 6.72 17.376 5.984 16.16 5.28 15.008 4.576 13.824c1.408 4.416 2.688 8.64 3.84 12.672l3.2 11.552c3.264 12.832 5.088 23.36 5.472 31.776L928 432a175.648 175.648 0 0 1-64 135.744V832a96 96 0 0 1-90.368 95.84L768 928H256a96 96 0 0 1-95.84-90.368L160 832v-264.224A175.648 175.648 0 0 1 96 432c0-9.984 2.336-23.52 7.072-40.864l3.52-12.096c0.64-2.144 1.28-4.288 2.016-6.496l4.576-13.824 5.28-15.008 5.984-16.16 6.72-17.376 7.456-18.56 12.48-30.208 14.176-32.96 15.2-34.496 1.088-3.264A96 96 0 0 1 265.6 128.192L271.616 128h480.768a96 96 0 0 1 91.936 68.416l-0.672-2.08-0.16-0.384z m-443.52 349.568l-7.84 7.232C350.368 588.288 310.624 608 272 608c-16.64 0-32.736-2.304-48-6.624V832a32 32 0 0 0 28.256 31.776L256 864h512a32 32 0 0 0 31.776-28.256L800 832v-230.624c-15.264 4.32-31.36 6.624-48 6.624-33.44 0-67.776-19.328-105.312-55.904L640 545.44l-7.04 7.008C595.68 588.768 561.376 608 528 608c-38.624 0-78.4-19.744-120.416-57.44l-7.616-7.04zM752.384 192H271.616a32 32 0 0 0-30.656 22.816l-1.408 3.84-4.992 11.232-14.08 32.16-12.576 29.632-11.168 27.072-9.696 24.448-5.632 14.816-7.264 19.968-4 11.808-3.328 10.56-2.688 9.28-2.016 8-1.344 6.72A48 48 0 0 0 160 432 112 112 0 0 0 272 544c21.76 0 50.112-14.912 83.968-46.944a63.904 63.904 0 0 1 87.68-0.32l7.04 6.464C481.664 531.072 507.712 544 528 544c14.24 0 37.12-13.6 66.272-43.36l0.48-0.448 4.576-4.16a63.904 63.904 0 0 1 86.144 4.352l6.144 6.144C718.08 532.288 738.88 544 752 544a112 112 0 0 0 112-112 48 48 0 0 0-0.768-7.648l-1.344-6.72-2.016-8-2.688-9.28a439.36 439.36 0 0 0-1.6-5.12l-3.648-11.2-4.352-12.384-4.992-13.632-5.632-14.816-9.696-24.448-11.168-27.072-17.12-40.096-14.528-32.96-2.72-7.392A32 32 0 0 0 752.384 192z" /></svg>