<?xml version="1.0" standalone="no"?><!DOCTYPE svg PUBLIC "-//W3C//DTD SVG 1.1//EN" "http://www.w3.org/Graphics/SVG/1.1/DTD/svg11.dtd"><svg class="icon" width="200px" height="200.00px" viewBox="0 0 1024 1024" version="1.1" xmlns="http://www.w3.org/2000/svg"><path fill="currentColor" d="M224.128 155.52C380.16 2.656 631.808-0.512 791.68 147.68l8.16 7.776a394.176 394.176 0 0 1 0 565.6L512 1002.944l-287.872-281.856a394.176 394.176 0 0 1 0-565.6z m516.64 32.448c-135.168-118.176-342.624-113.28-471.872 13.248a330.176 330.176 0 0 0 0 474.144L512 913.344l243.104-237.984a330.048 330.048 0 0 0 7.36-466.752l-7.04-7.072-7.52-7.168zM512 275.2a168.544 168.544 0 1 1 0 337.056A168.544 168.544 0 0 1 512 275.2z m0 64a104.544 104.544 0 1 0 0 209.056 104.544 104.544 0 0 0 0-209.056z" /></svg>