<?xml version="1.0" standalone="no"?>
<!DOCTYPE svg PUBLIC "-//W3C//DTD SVG 1.1//EN" "http://www.w3.org/Graphics/SVG/1.1/DTD/svg11.dtd">
<svg class="icon" width="200px" height="200.00px" viewBox="0 0 1024 1024" version="1.1" xmlns="http://www.w3.org/2000/svg">
    <path fill="currentColor" d="M272 272h68.576v68.576H272V272z m548.576 548.576h68.576v68.576h-68.576v-68.576z m0-137.152H752v-137.152h-205.728v342.88h68.576v-274.304h68.576V752h205.728v-205.728h-68.576v137.152z m-137.152 137.152H752v68.576h-68.576v-68.576zM134.848 477.728H477.76V134.848H134.848V477.76z m68.576-274.304h205.728v205.728H203.424V203.424z m68.576 480h68.576V752H272v-68.576z m-137.152 205.728H477.76V546.24H134.848v342.88z m68.576-274.304h205.728v205.728H203.424v-205.728z m480-342.848H752v68.576h-68.576V272z m-137.152-137.152V477.76h342.88V134.848H546.24z m274.304 274.304h-205.728V203.424h205.728v205.728z" />
</svg>