<?xml version="1.0" standalone="no"?>
<!DOCTYPE svg PUBLIC "-//W3C//DTD SVG 1.1//EN" "http://www.w3.org/Graphics/SVG/1.1/DTD/svg11.dtd">
<svg class="icon" width="200px" height="200.00px" viewBox="0 0 1024 1024" version="1.1" xmlns="http://www.w3.org/2000/svg">
    <path fill="currentColor" d="M455.616 146.304a95.968 95.968 0 0 1 112.768 0l320.064 232.352a95.776 95.776 0 0 1 34.88 107.136l-122.304 376A95.904 95.904 0 0 1 709.824 928H314.176a95.904 95.904 0 0 1-91.2-66.24L100.704 485.824a95.776 95.776 0 0 1 34.848-107.136z m157.696 607.456l-4.16 0.192h-193.696l-80.16 110.144h361.216l-83.2-110.336zM172.576 500.096l107.616 331.04 78.688-108.192a68.608 68.608 0 0 1-6.144-11.616l-1.792-4.928-59.584-183.168v-0.064l-118.784-23.072z m678.816 0l-117.088 22.72-0.096 0.416-59.584 183.168c-1.6 4.992-3.776 9.696-6.4 14.08l77.92 103.296 105.248-323.68z m-338.784 120.128l-47.2 64.928h96.16l-48.96-64.928z m-144.032-82.08l38.528 118.464 70.72-97.248-109.248-21.216z m288.48-0.32l-110.4 21.44 3.968 5.248 1.632 1.216-0.352 0.448 67.04 88.896 38.112-117.248zM480 412.544l-89.28 64.832 89.28 17.344v-82.176z m63.968-1.12v83.296l90.528-17.568-90.528-65.728zM480 207.552l-306.88 222.816a32 32 0 0 0-4.448 3.872l133.504 25.92c3.968-5.184 8.736-9.856 14.208-13.824l155.936-113.216c2.464-1.792 5.024-3.392 7.68-4.8V207.52z m63.968 0v119.904c3.2 1.632 6.304 3.52 9.28 5.664l155.936 113.216c5.376 3.904 10.08 8.512 14.016 13.568l132.128-25.664a32 32 0 0 0-4.448-3.872l-306.912-222.816z" />
</svg>