<?xml version="1.0" standalone="no"?><!DOCTYPE svg PUBLIC "-//W3C//DTD SVG 1.1//EN" "http://www.w3.org/Graphics/SVG/1.1/DTD/svg11.dtd"><svg class="icon" width="200px" height="200.00px" viewBox="0 0 1024 1024" version="1.1" xmlns="http://www.w3.org/2000/svg"><path fill="currentColor" d="M512 68.256c245.056 0 443.744 198.688 443.744 443.744 0 245.056-198.688 443.744-443.744 443.744-245.056 0-443.744-198.688-443.744-443.744C68.256 266.944 266.944 68.256 512 68.256z m0 64C302.272 132.256 132.256 302.272 132.256 512c0 209.728 170.016 379.744 379.744 379.744 209.728 0 379.744-170.016 379.744-379.744 0-209.728-170.016-379.744-379.744-379.744z m172.8 345.6a32 32 0 0 1 32 32v4.288a32 32 0 0 1-32 32H339.2a32 32 0 0 1-32-32v-4.288a32 32 0 0 1 32-32h345.6z" /></svg>