<svg class="icon" viewBox="0 0 1024 1024" version="1.1" xmlns="http://www.w3.org/2000/svg" width="200" height="200"><path d="M136.544 443.744l-102.4 136.512h76.064c32.48 192.544 200 339.2 401.792 339.2 140.064 0 268-71.232 342.56-186.752a32 32 0 0 0-53.76-34.688A343.104 343.104 0 0 1 512 855.456c-166.304 0-305.024-118.208-336.672-275.2h63.616l-102.4-136.512zM512 104.544c-145.664 0-278.016 77.12-350.848 200.16a32 32 0 0 0 55.04 32.608A343.232 343.232 0 0 1 512 168.544c178.176 0 324.64 135.648 341.76 309.312h-68.704l102.4 136.544 102.4-136.544H918.08C900.704 268.8 725.536 104.544 512 104.544z" p-id="2355"></path></svg>