<?xml version="1.0" standalone="no"?><!DOCTYPE svg PUBLIC "-//W3C//DTD SVG 1.1//EN" "http://www.w3.org/Graphics/SVG/1.1/DTD/svg11.dtd"><svg class="icon" width="200px" height="200.00px" viewBox="0 0 1024 1024" version="1.1" xmlns="http://www.w3.org/2000/svg"><path fill="currentColor" d="M640.384 102.4a102.4 102.4 0 0 1 72.8 30.4l178.816 180.704a102.4 102.4 0 0 1 29.6 72.032V857.6a64 64 0 0 1-64 64H166.4a64 64 0 0 1-64-64V166.4a64 64 0 0 1 64-64h473.984z m8.128 511.968h-273.056V857.6h273.056v-243.232zM640.384 166.4H166.4v691.2h140.8v-279.456a32 32 0 0 1 32-32h345.6a32 32 0 0 1 32 32v4.256l-0.032 0.512V857.6H857.6V385.536a38.4 38.4 0 0 0-8.256-23.776l-2.848-3.232-178.816-180.736a38.4 38.4 0 0 0-27.296-11.392zM377.6 288c3.52 0 6.4 2.88 6.4 6.4v51.2a6.4 6.4 0 0 1-6.4 6.4H262.4a6.4 6.4 0 0 1-6.4-6.4V294.4c0-3.52 2.88-6.4 6.4-6.4h115.2z" /></svg>