<?xml version="1.0" standalone="no"?><!DOCTYPE svg PUBLIC "-//W3C//DTD SVG 1.1//EN" "http://www.w3.org/Graphics/SVG/1.1/DTD/svg11.dtd"><svg class="icon" width="200px" height="200.00px" viewBox="0 0 1024 1024" version="1.1" xmlns="http://www.w3.org/2000/svg"><path fill="currentColor" d="M640.384 102.4a102.4 102.4 0 0 1 72.8 30.4l178.816 180.704a102.4 102.4 0 0 1 29.6 72.032V857.6a64 64 0 0 1-64 64H166.4a64 64 0 0 1-64-64V166.4a64 64 0 0 1 64-64h473.984zM684.8 546.144H339.2a32 32 0 0 0-32 32V921.6h68.256v-307.2h273.056v307.2H716.8V578.144a32 32 0 0 0-32-32zM377.6 288H262.4a6.4 6.4 0 0 0-6.4 6.4v51.2c0 3.52 2.88 6.4 6.4 6.4h115.2a6.4 6.4 0 0 0 6.4-6.4V294.4a6.4 6.4 0 0 0-6.4-6.4z" /></svg>