<?xml version="1.0" standalone="no"?><!DOCTYPE svg PUBLIC "-//W3C//DTD SVG 1.1//EN" "http://www.w3.org/Graphics/SVG/1.1/DTD/svg11.dtd"><svg class="icon" width="200px" height="200.00px" viewBox="0 0 1024 1024" version="1.1" xmlns="http://www.w3.org/2000/svg"><path fill="currentColor" d="M170.656 673.344v151.552c0 14.496 10.88 26.464 24.896 28.224l3.552 0.224 176.352-0.032v68.256l-176.32 0.032a96.704 96.704 0 0 1-96.544-90.816l-0.192-5.888v-151.552h68.256z m750.944 3.2v148.352a96.704 96.704 0 0 1-90.816 96.512l-5.888 0.192-176.384-0.032v-68.256h176.384a28.48 28.48 0 0 0 28.224-24.864l0.224-3.552v-148.352H921.6z m27.744-198.688c3.52 0 6.4 2.88 6.4 6.4v55.488a6.4 6.4 0 0 1-6.4 6.4H74.656a6.4 6.4 0 0 1-6.4-6.4v-55.488c0-3.52 2.88-6.4 6.4-6.4h874.688zM375.456 102.4v68.256h-176.32a28.48 28.48 0 0 0-28.256 24.896l-0.224 3.552v156.736H102.4V199.104a96.704 96.704 0 0 1 90.816-96.512l5.888-0.192h176.352z m449.44 0a96.704 96.704 0 0 1 96.512 90.816l0.192 5.888v156.672h-68.256V199.104a28.48 28.48 0 0 0-24.896-28.224l-3.552-0.224h-176.384V102.4h176.384z" /></svg>