<?xml version="1.0" standalone="no"?>
<!DOCTYPE svg PUBLIC "-//W3C//DTD SVG 1.1//EN" "http://www.w3.org/Graphics/SVG/1.1/DTD/svg11.dtd">
<svg class="icon" width="200px" height="200.00px" viewBox="0 0 1024 1024" version="1.1" xmlns="http://www.w3.org/2000/svg">
    <path fill="currentColor" d="M489.664 174.176v359.936h359.36v33.184C848.992 784.192 673.28 960 456.48 960S64 784.192 64 567.296C64 357.664 228.448 185.76 436.544 175.136l9.92-0.384 43.2-0.576z m-66.336 68.48l-2.624 0.256a326.336 326.336 0 0 0-290.368 324.384c0 180.224 146.016 326.336 326.176 326.336 164.864 0 301.152-122.4 323.072-281.28l1.088-8.896 0.288-2.976H423.328V242.656zM567.04 64c209.536 0 381.344 164.512 392 372.736l0.352 9.92 0.576 43.2H533.888V64h33.184z m33.152 68.032v291.456h291.296l-0.224-2.592a326.4 326.4 0 0 0-278.912-287.392l-9.216-1.152-2.944-0.32z" />
</svg>