<?xml version="1.0" standalone="no"?><!DOCTYPE svg PUBLIC "-//W3C//DTD SVG 1.1//EN" "http://www.w3.org/Graphics/SVG/1.1/DTD/svg11.dtd"><svg class="icon" width="200px" height="200.00px" viewBox="0 0 1024 1024" version="1.1" xmlns="http://www.w3.org/2000/svg"><path fill="currentColor" d="M925.888 110.848c2.816 7.584 2.816 15.904 0 23.456L641.92 898.944a33.696 33.696 0 0 1-55.392 12.096l-174.016-174.016-120.256 112.448c-22.976 21.44-59.456 2.528-56.576-27.488l0.512-3.648 37.856-191.904c1.152-5.856 3.84-11.264 7.712-15.712l2.208-2.24-178.08-178.08a33.696 33.696 0 0 1 12.096-55.36l764.64-284.032a33.696 33.696 0 0 1 43.296 19.84z m-187.648 157.12L325.568 578.56l45.056 48.96L738.24 268z" /></svg>