<?xml version="1.0" standalone="no"?>
<!DOCTYPE svg PUBLIC "-//W3C//DTD SVG 1.1//EN" "http://www.w3.org/Graphics/SVG/1.1/DTD/svg11.dtd">
<svg class="icon" width="200px" height="200.00px" viewBox="0 0 1024 1024" version="1.1" xmlns="http://www.w3.org/2000/svg">
    <path fill="currentColor" d="M807.36 64C856.32 64 896 104.864 896 155.296v713.376c0 50.432-39.68 91.296-88.64 91.296-7.232 0-14.432-0.896-21.44-2.72l-266.752-68.704a28.704 28.704 0 0 0-14.336 0l-266.72 68.704c-47.488 12.224-95.584-17.504-107.456-66.432A93.952 93.952 0 0 1 128 868.672V155.296C128 104.864 167.68 64 216.64 64z m-281.184 203.616a32 32 0 0 0-42.88 14.528l-29.696 60.16a32 32 0 0 1-24.096 17.504l-66.368 9.664a32 32 0 0 0-17.728 54.56l48 46.848a32 32 0 0 1 9.216 28.32l-11.328 66.112a32 32 0 0 0 46.432 33.728l59.392-31.2a32 32 0 0 1 29.76 0l59.392 31.2a32 32 0 0 0 46.432-33.728l-11.328-66.112a32 32 0 0 1 9.184-28.32l48.032-46.848a32 32 0 0 0-17.728-54.56l-66.368-9.664a32 32 0 0 1-24.096-17.504l-29.696-60.16a32 32 0 0 0-14.528-14.528z" />
</svg>