<?xml version="1.0" standalone="no"?>
<!DOCTYPE svg PUBLIC "-//W3C//DTD SVG 1.1//EN" "http://www.w3.org/Graphics/SVG/1.1/DTD/svg11.dtd">
<svg class="icon" width="200px" height="200.00px" viewBox="0 0 1024 1024" version="1.1" xmlns="http://www.w3.org/2000/svg">
    <path fill="currentColor" d="M608 104.32a32 32 0 0 1 3.744 63.776L608 168.32H197.824c-19.584 0-35.68 14.88-37.632 33.92L160 206.176v628.352c0 19.584 14.88 35.68 33.952 37.632l3.84 0.192h628.384c19.584 0 35.68-14.88 37.632-33.952l0.192-3.84v-410.24a32 32 0 0 1 63.776-3.712l0.224 3.744v410.176a101.824 101.824 0 0 1-96.032 101.664l-5.76 0.16H197.792a101.824 101.824 0 0 1-101.664-96.032L96 834.528V206.112a101.824 101.824 0 0 1 96.032-101.664l5.76-0.16H608z m136.48-4.768l3.424 2.08 155.808 107.136a48 48 0 0 1-22.592 87.36l-4.608 0.192H704a96 96 0 0 0-95.84 90.368L608 392.32v256a32 32 0 0 1-63.776 3.744L544 648.32v-256a160 160 0 0 1 153.056-159.84L704 232.32l120.992-0.032-113.344-77.92a32 32 0 0 1-10.304-41.056l2.08-3.456a32 32 0 0 1 41.056-10.304z" />
</svg>