<?xml version="1.0" standalone="no"?><!DOCTYPE svg PUBLIC "-//W3C//DTD SVG 1.1//EN" "http://www.w3.org/Graphics/SVG/1.1/DTD/svg11.dtd"><svg class="icon" width="200px" height="200.00px" viewBox="0 0 1024 1024" version="1.1" xmlns="http://www.w3.org/2000/svg"><path fill="currentColor" d="M416.896 800a64.896 64.896 0 1 1 0 129.792 64.896 64.896 0 0 1 0-129.792z m324.48 0a64.896 64.896 0 1 1 0 129.792 64.896 64.896 0 0 1 0-129.792zM235.68 96a32 32 0 0 1 31.68 27.232l15.392 102.528 547.904 0.032a97.344 97.344 0 0 1 97.184 91.616l0.16 5.728c0 3.296-0.16 6.592-0.512 9.888l-0.64 4.928-44.896 324.48a97.344 97.344 0 0 1-90.496 82.368l-5.728 0.16H378.816a97.344 97.344 0 0 1-95.168-76.896L282.56 662.4l-2.848-20.096L207.456 160.896H128.448a32.448 32.448 0 0 1 0-64.896h107.232z m594.976 194.688H296.032l48.512 346.368 2.304 15.104h-0.192l0.096 0.384c2.24 14.624 14.016 25.696 28.416 27.328l3.648 0.192h406.912c14.784 0 27.52-9.952 31.328-23.936l0.736-3.584 44.928-324.48a32.448 32.448 0 0 0-32.064-37.376z m-183.04 259.584a32 32 0 0 1 32 32v0.896a32 32 0 0 1-32 32h-130.688a32 32 0 0 1-32-32v-0.896a32 32 0 0 1 32-32h130.688z" /></svg>