<?xml version="1.0" standalone="no"?><!DOCTYPE svg PUBLIC "-//W3C//DTD SVG 1.1//EN" "http://www.w3.org/Graphics/SVG/1.1/DTD/svg11.dtd"><svg class="icon" width="200px" height="200.00px" viewBox="0 0 1024 1024" version="1.1" xmlns="http://www.w3.org/2000/svg"><path fill="currentColor" d="M416.896 800a64.896 64.896 0 1 1 0 129.792 64.896 64.896 0 0 1 0-129.792z m324.48 0a64.896 64.896 0 1 1 0 129.792 64.896 64.896 0 0 1 0-129.792zM235.68 96a32 32 0 0 1 31.68 27.232l15.392 102.528 547.904 0.032a97.344 97.344 0 0 1 96.832 107.232l-0.64 4.928-44.896 324.48a97.344 97.344 0 0 1-90.496 82.368l-5.728 0.16H378.816a97.344 97.344 0 0 1-95.168-76.896L282.56 662.4l-2.848-20.096L207.456 160.896H128.448a32.448 32.448 0 0 1 0-64.896h107.232z m411.936 454.272h-130.688a32 32 0 0 0-31.776 28.256l-0.224 3.744v0.896a32 32 0 0 0 28.256 31.776l3.744 0.224h130.688a32 32 0 0 0 31.776-28.256l0.224-3.744v-0.896a32 32 0 0 0-32-32z" /></svg>