<?xml version="1.0" standalone="no"?><!DOCTYPE svg PUBLIC "-//W3C//DTD SVG 1.1//EN" "http://www.w3.org/Graphics/SVG/1.1/DTD/svg11.dtd"><svg class="icon" width="200px" height="200.00px" viewBox="0 0 1024 1024" version="1.1" xmlns="http://www.w3.org/2000/svg"><path fill="currentColor" d="M800 64a96 96 0 0 1 96 96v704a96 96 0 0 1-96 96H224a96 96 0 0 1-96-96V160a96 96 0 0 1 96-96z m-128 192a32 32 0 0 0-32 32v26.656l-0.16 6.4a128 128 0 0 1-255.84-6.4V288l-0.224-3.744A32 32 0 0 0 320 288v26.656l0.128 7.2A192 192 0 0 0 704 314.656V288l-0.224-3.744A32 32 0 0 0 672 256z" /></svg>