<?xml version="1.0" standalone="no"?>
<!DOCTYPE svg PUBLIC "-//W3C//DTD SVG 1.1//EN" "http://www.w3.org/Graphics/SVG/1.1/DTD/svg11.dtd">
<svg class="icon" width="200px" height="200.00px" viewBox="0 0 1024 1024" version="1.1" xmlns="http://www.w3.org/2000/svg">
    <path fill="currentColor" d="M217.6 160c3.52 0 6.4 2.88 6.4 6.4V256a96 96 0 0 1 96 96v320a96 96 0 0 1-96 96v89.6a6.4 6.4 0 0 1-6.4 6.4H166.4a6.4 6.4 0 0 1-6.4-6.4V768a96 96 0 0 1-96-96V352a96 96 0 0 1 96-96V166.4c0-3.52 2.88-6.4 6.4-6.4h51.2z m640 0c3.52 0 6.4 2.88 6.4 6.4V256a96 96 0 0 1 96 96v320a96 96 0 0 1-96 96v89.6a6.4 6.4 0 0 1-6.4 6.4h-51.2a6.4 6.4 0 0 1-6.4-6.4V768a96 96 0 0 1-96-96V352a96 96 0 0 1 96-96V166.4c0-3.52 2.88-6.4 6.4-6.4h51.2z m-320 0c3.52 0 6.4 2.88 6.4 6.4V384a96 96 0 0 1 96 96v64a96 96 0 0 1-96 96v217.6a6.4 6.4 0 0 1-6.4 6.4h-51.2a6.4 6.4 0 0 1-6.4-6.4V640a96 96 0 0 1-96-96v-64a96 96 0 0 1 96-96V166.4c0-3.52 2.88-6.4 6.4-6.4h51.2zM224 320H160a32 32 0 0 0-32 32v320a32 32 0 0 0 32 32h64a32 32 0 0 0 32-32V352a32 32 0 0 0-32-32z m640 0h-64a32 32 0 0 0-32 32v320a32 32 0 0 0 32 32h64a32 32 0 0 0 32-32V352a32 32 0 0 0-32-32z m-320 128h-64a32 32 0 0 0-32 32v64a32 32 0 0 0 32 32h64a32 32 0 0 0 32-32v-64a32 32 0 0 0-32-32z" />
</svg>