<svg t="1640598283725" class="icon" viewBox="0 0 1024 1024" version="1.1" xmlns="http://www.w3.org/2000/svg" p-id="8027" width="200" height="200">
  <path d="M804.571429 621.714286q0 14.857143-10.857143 25.714286l-256 256q-10.857143 10.857143-25.714286 10.857143t-25.714286-10.857143l-256-256q-10.857143-10.857143-10.857143-25.714286t10.857143-25.714286 25.714286-10.857143l512 0q14.857143 0 25.714286 10.857143t10.857143 25.714286zm0-219.428571q0 14.857143-10.857143 25.714286t-25.714286 10.857143l-512 0q-14.857143 0-25.714286-10.857143t-10.857143-25.714286 10.857143-25.714286l256-256q10.857143-10.857143 25.714286-10.857143t25.714286 10.857143l256 256q10.857143 10.857143 10.857143 25.714286z" p-id="8028" fill="currentColor"></path>
</svg>