<?xml version="1.0" standalone="no"?>
<!DOCTYPE svg PUBLIC "-//W3C//DTD SVG 1.1//EN" "http://www.w3.org/Graphics/SVG/1.1/DTD/svg11.dtd">
<svg class="icon" width="200px" height="200.00px" viewBox="0 0 1024 1024" version="1.1" xmlns="http://www.w3.org/2000/svg">
    <path fill="currentColor" d="M770.528 676.384l-236.864 249.088a30.08 30.08 0 0 1-41.056 2.176l-2.24-2.176-236.896-249.088a2.048 2.048 0 0 1 1.472-3.456h55.232c1.12 0 2.176 0.48 2.944 1.28L512 883.296l198.848-209.12a4.096 4.096 0 0 1 2.976-1.28h55.232a2.048 2.048 0 0 1 1.472 3.488zM770.528 346.112L533.664 96.96a30.08 30.08 0 0 0-41.056-2.144l-2.24 2.144-236.896 249.088a2.048 2.048 0 0 0 1.472 3.456h55.232a4.096 4.096 0 0 0 2.944-1.28L512 139.2l198.848 209.12c0.768 0.832 1.856 1.28 2.976 1.28h55.232a2.048 2.048 0 0 0 1.472-3.456z" />
</svg>