<?xml version="1.0" standalone="no"?>
<!DOCTYPE svg PUBLIC "-//W3C//DTD SVG 1.1//EN" "http://www.w3.org/Graphics/SVG/1.1/DTD/svg11.dtd">
<svg class="icon" width="200px" height="200.00px" viewBox="0 0 1024 1024" version="1.1" xmlns="http://www.w3.org/2000/svg">
    <path fill="currentColor" d="M514.656 720a32 32 0 0 1 32 32V896a32 32 0 0 1-32 32h-5.312a32 32 0 0 1-32-32v-144a32 32 0 0 1 32-32h5.312z m191.552-62.816l101.824 101.824a32 32 0 0 1 0 45.248l-3.776 3.776a32 32 0 0 1-45.248 0l-101.824-101.824a32 32 0 0 1 0-45.248l3.776-3.776a32 32 0 0 1 45.248 0z m-343.168 0l3.776 3.776a32 32 0 0 1 0 45.248L264.96 808.032a32 32 0 0 1-45.248 0l-3.776-3.776a32 32 0 0 1 0-45.248l101.824-101.824a32 32 0 0 1 45.248 0zM896 477.344a32 32 0 0 1 32 32v5.312a32 32 0 0 1-32 32h-144a32 32 0 0 1-32-32v-5.312a32 32 0 0 1 32-32H896z m-624 0a32 32 0 0 1 32 32v5.312a32 32 0 0 1-32 32H128a32 32 0 0 1-32-32v-5.312a32 32 0 0 1 32-32h144z m532.256-261.376l3.776 3.776a32 32 0 0 1 0 45.248l-101.824 101.824a32 32 0 0 1-45.248 0l-3.776-3.776a32 32 0 0 1 0-45.248l101.824-101.824a32 32 0 0 1 45.248 0z m-539.264 0l101.824 101.824a32 32 0 0 1 0 45.248l-3.776 3.776a32 32 0 0 1-45.248 0L215.968 264.96a32 32 0 0 1 0-45.248l3.776-3.776a32 32 0 0 1 45.248 0zM514.656 96a32 32 0 0 1 32 32v144a32 32 0 0 1-32 32h-5.312a32 32 0 0 1-32-32V128a32 32 0 0 1 32-32h5.312z" />
</svg>