<?xml version="1.0" standalone="no"?>
<!DOCTYPE svg PUBLIC "-//W3C//DTD SVG 1.1//EN" "http://www.w3.org/Graphics/SVG/1.1/DTD/svg11.dtd">
<svg class="icon" width="200px" height="200.00px" viewBox="0 0 1024 1024" version="1.1" xmlns="http://www.w3.org/2000/svg">
    <path fill="currentColor" d="M418.88 153.92l-64.256 130.144c-5.056 10.24-14.784 17.312-26.048 18.944l-143.68 20.864a103.84 103.84 0 0 0-57.536 177.152l103.936 101.312c8.16 7.968 11.904 19.424 9.952 30.656l-24.512 143.04a103.84 103.84 0 0 0 150.656 109.504l128.48-67.552a34.624 34.624 0 0 1 32.224 0l128.48 67.52a103.84 103.84 0 0 0 150.688-109.44l-24.544-143.072c-1.92-11.232 1.792-22.72 9.952-30.656l103.968-101.312a103.84 103.84 0 0 0-57.6-177.152l-143.616-20.864a34.624 34.624 0 0 1-26.048-18.944L605.12 153.92a103.84 103.84 0 0 0-186.24 0z" />
</svg>