<?xml version="1.0" standalone="no"?>
<!DOCTYPE svg PUBLIC "-//W3C//DTD SVG 1.1//EN" "http://www.w3.org/Graphics/SVG/1.1/DTD/svg11.dtd">
<svg class="icon" width="200px" height="200.00px" viewBox="0 0 1024 1024" version="1.1" xmlns="http://www.w3.org/2000/svg">
    <path fill="currentColor" d="M418.88 153.92l-64.256 130.144c-5.056 10.24-14.784 17.312-26.048 18.944l-143.68 20.864a103.84 103.84 0 0 0-57.536 177.152l103.936 101.312c8.16 7.968 11.904 19.424 9.952 30.656l-24.512 143.04a103.84 103.84 0 0 0 150.656 109.504l128.48-67.552a34.624 34.624 0 0 1 32.224 0l128.48 67.52a103.84 103.84 0 0 0 150.688-109.44l-24.544-143.072c-1.92-11.232 1.792-22.72 9.952-30.656l103.968-101.312a103.84 103.84 0 0 0-57.6-177.152l-143.616-20.864a34.624 34.624 0 0 1-26.048-18.944L605.12 153.92a103.84 103.84 0 0 0-186.24 0z m108.448 14.912c6.816 3.36 12.352 8.896 15.68 15.712l64.256 130.176a103.84 103.84 0 0 0 78.208 56.8l143.648 20.896a34.624 34.624 0 0 1 19.2 59.04l-103.968 101.312a103.84 103.84 0 0 0-29.856 91.936l24.544 143.04a34.624 34.624 0 0 1-50.24 36.48l-128.48-67.52a103.84 103.84 0 0 0-96.64 0l-128.48 67.52a34.624 34.624 0 0 1-50.24-36.48l24.544-143.04a103.84 103.84 0 0 0-29.888-91.936L175.68 451.456a34.624 34.624 0 0 1 19.2-59.04l143.648-20.896a103.84 103.84 0 0 0 78.176-56.8l64.256-130.176a34.624 34.624 0 0 1 46.368-15.712z" />
</svg>