<?xml version="1.0" standalone="no"?>
<!DOCTYPE svg PUBLIC "-//W3C//DTD SVG 1.1//EN" "http://www.w3.org/Graphics/SVG/1.1/DTD/svg11.dtd">
<svg class="icon" width="200px" height="200.00px" viewBox="0 0 1024 1024" version="1.1" xmlns="http://www.w3.org/2000/svg">
    <path fill="currentColor" d="M464 54.752l-320 184.768A96 96 0 0 0 96 322.656V692.16a96 96 0 0 0 48 83.136l320 184.736a96 96 0 0 0 96 0l320-184.736A96 96 0 0 0 928 692.16V322.656a96 96 0 0 0-48-83.136l-320-184.768a96 96 0 0 0-96 0z m64 55.424l320 184.768a32 32 0 0 1 16 27.712V692.16a32 32 0 0 1-16 27.712l-320 184.736a32 32 0 0 1-32 0l-320-184.736a32 32 0 0 1-16-27.712V322.656a32 32 0 0 1 16-27.712l320-184.768a32 32 0 0 1 32 0zM391.2 407.68v42.72h116.672c-31.232 43.2-73.024 77.632-125.408 103.36l25.728 42.72a396.032 396.032 0 0 0 132.288-132.288v102.4c0 11.968-5.056 18.4-14.72 18.4-15.584 0-31.2-1.376-47.744-3.2l10.112 44.064h53.28c29.376 0 44.544-16.064 44.544-47.296v-128.16h51.904V407.68h-51.904v-49.6H540.48v49.6h-149.28zM704 297.92H320v409.696h45.92v-16.064h292.16v16.064H704V297.92zM365.92 648.352v-307.296h292.16v307.296h-292.16z" />
</svg>