<?xml version="1.0" standalone="no"?>
<!DOCTYPE svg PUBLIC "-//W3C//DTD SVG 1.1//EN" "http://www.w3.org/Graphics/SVG/1.1/DTD/svg11.dtd">
<svg class="icon" width="200px" height="200.00px" viewBox="0 0 1024 1024" version="1.1" xmlns="http://www.w3.org/2000/svg">
    <path fill="currentColor" d="M736 160a64 64 0 0 1 64 64v135.712l114.336-70.848a6.4 6.4 0 0 1 9.632 5.536v425.728a6.4 6.4 0 0 1-9.6 5.504L800 654.752V800a64 64 0 0 1-64 64H160a64 64 0 0 1-64-64V224a64 64 0 0 1 64-64h576zM384 288H256a32 32 0 0 0-3.744 63.776L256 352h128a32 32 0 1 0 0-64z" />
</svg>