<?xml version="1.0" standalone="no"?><!DOCTYPE svg PUBLIC "-//W3C//DTD SVG 1.1//EN" "http://www.w3.org/Graphics/SVG/1.1/DTD/svg11.dtd"><svg class="icon" width="200px" height="200.00px" viewBox="0 0 1024 1024" version="1.1" xmlns="http://www.w3.org/2000/svg"><path fill="currentColor" d="M512 172.8c175.744 0 332.8 108.736 470.592 321.824a32 32 0 0 1 0 34.752C844.8 742.496 687.744 851.2 512 851.2c-175.744 0-332.8-108.736-470.592-321.824a32 32 0 0 1 0-34.752C179.2 281.504 336.256 172.8 512 172.8z m0 64c-144.576 0-277.952 88.064-400.576 268.032L106.592 512l4.832 7.168c119.904 175.968 250.08 264.064 390.944 267.904L512 787.2c144.576 0 277.952-88.064 400.576-268.032l4.8-7.168-4.8-7.168c-119.904-175.968-250.08-264.064-390.944-267.904z m0 106.656a168.544 168.544 0 1 1 0 337.088 168.544 168.544 0 0 1 0-337.088z m0 64a104.544 104.544 0 1 0 0 209.088 104.544 104.544 0 0 0 0-209.088z" /></svg>