<?xml version="1.0" standalone="no"?><!DOCTYPE svg PUBLIC "-//W3C//DTD SVG 1.1//EN" "http://www.w3.org/Graphics/SVG/1.1/DTD/svg11.dtd"><svg class="icon" width="200px" height="200.00px" viewBox="0 0 1024 1024" version="1.1" xmlns="http://www.w3.org/2000/svg"><path fill="currentColor" d="M512 64c247.424 0 448 200.576 448 448s-200.576 448-448 448S64 759.424 64 512 264.576 64 512 64z m2.464 585.856h-4.928a32 32 0 0 0-32 32v4.928a32 32 0 0 0 32 32h4.928a32 32 0 0 0 32-32v-4.928a32 32 0 0 0-32-32z m0-344.64h-4.928a32 32 0 0 0-32 32v246.176a32 32 0 0 0 32 32h4.928a32 32 0 0 0 32-32v-246.176a32 32 0 0 0-32-32z" /></svg>