<?xml version="1.0" standalone="no"?><!DOCTYPE svg PUBLIC "-//W3C//DTD SVG 1.1//EN" "http://www.w3.org/Graphics/SVG/1.1/DTD/svg11.dtd"><svg class="icon" width="200px" height="200.00px" viewBox="0 0 1024 1024" version="1.1" xmlns="http://www.w3.org/2000/svg"><path fill="currentColor" d="M800 64a96 96 0 0 1 96 96v704a96 96 0 0 1-96 96H224a96 96 0 0 1-96-96V160a96 96 0 0 1 96-96z m-128 512H352a32 32 0 0 0 0 64h320a32 32 0 0 0 0-64zM512 224a160 160 0 1 0 0 320 160 160 0 0 0 0-320z m0 64a96 96 0 1 1 0 192 96 96 0 0 1 0-192z" /></svg>