<?xml version="1.0" standalone="no"?>
<!DOCTYPE svg PUBLIC "-//W3C//DTD SVG 1.1//EN" "http://www.w3.org/Graphics/SVG/1.1/DTD/svg11.dtd">
<svg class="icon" width="200px" height="200.00px" viewBox="0 0 1024 1024" version="1.1" xmlns="http://www.w3.org/2000/svg">
    <path fill="currentColor" d="M464 54.752l-320 184.768A96 96 0 0 0 96 322.656V692.16a96 96 0 0 0 48 83.136l320 184.736a96 96 0 0 0 96 0l320-184.736A96 96 0 0 0 928 692.16V322.656a96 96 0 0 0-48-83.136l-320-184.768a96 96 0 0 0-96 0z m64 55.424l320 184.768a32 32 0 0 1 16 27.712V692.16a32 32 0 0 1-16 27.712l-320 184.736a32 32 0 0 1-32 0l-320-184.736a32 32 0 0 1-16-27.712V322.656a32 32 0 0 1 16-27.712l320-184.768a32 32 0 0 1 32 0zM555.84 304.576l-42.656 7.264c7.232 15.424 13.6 31.744 19.968 49.92h-49.024v166.528h223.68v-166.528H657.92c7.264-16.32 12.704-34.048 16.8-53.12l-41.28-5.888c-3.648 20.416-8.64 39.936-15.904 59.008h-44.928c-5.44-21.792-10.88-40.864-16.768-57.184z m115.232 187.84h-58.976v-94.816h58.976v94.816z m-93.92 0h-56.736v-94.816h56.736v94.816z m-24.064-79.392l-25.408 8.16c7.264 19.072 13.184 38.56 17.696 59.456l24.512-6.816a501.376 501.376 0 0 0-16.8-60.8z m84.416-2.272c-5.44 24.512-11.36 45.376-18.592 61.728l26.304 9.504c7.712-18.592 14.08-39.936 19.072-64l-26.784-7.232z m54.464 138.4h-190.592v174.24h40.384v-16.32h110.272v16.32h39.936v-174.24z m-150.208 122.976v-27.68h110.272v27.68H541.76z m0-59.456v-28.576h110.272v28.576H541.76zM466.432 323.2H315.328v285.44h37.664v-248.224h76.224v245.504h37.216v-282.72z m-43.104 301.312l-25.856 25.408c23.136 23.584 41.28 45.824 53.984 66.688l29.952-29.472a487.392 487.392 0 0 0-58.08-62.624z m-48.544-240.032v145.632c-0.928 41.28-6.816 74.88-16.8 100.736-10.432 24.512-30.4 44.48-59.456 59.904l22.24 34.496c30.4-15.872 52.16-38.56 65.792-68.064 13.184-31.776 20.416-73.984 21.792-127.04v-145.664h-33.6z" />
</svg>