<?xml version="1.0" standalone="no"?>
<!DOCTYPE svg PUBLIC "-//W3C//DTD SVG 1.1//EN" "http://www.w3.org/Graphics/SVG/1.1/DTD/svg11.dtd"><svg t="1622114810528"
  class="icon" viewBox="0 0 1024 1024" version="1.1" xmlns="http://www.w3.org/2000/svg" p-id="4513"
  xmlns:xlink="http://www.w3.org/1999/xlink" width="200" height="200">
  <path
    d="M513.6 891.498667c-5.333333 0-10.133333-1.6-14.421333-4.821334-6.4-4.8-123.882667-106.794667-123.882667-106.794666a25.130667 25.130667 0 0 1-7.466667-17.621334V462.165333L150.485333 211.712c-8.533333-10.666667-6.933333-26.688 4.266667-35.242667 4.266667-3.2 10.154667-5.333333 15.488-5.333333h574.592c6.933333 0 12.8 2.666667 17.621333 7.466667 4.8 4.821333 7.466667 11.221333 7.466667 17.621333 0 5.888-2.133333 11.733333-5.866667 16.554667L538.709333 462.72v403.690667c0 13.888-11.221333 25.109333-25.109333 25.109333z"
    p-id="4514" fill="currentColor"></path>
  <path
    d="M667.392 840.746667c-6.4 0-12.8-2.645333-17.621333-7.466667a25.130667 25.130667 0 0 1-7.466667-17.621333c0-13.866667 11.2-25.088 25.088-25.088h194.368a25.066667 25.066667 0 1 1 0 50.197333h-194.346667z m0-156.970667c-13.866667 0-25.088-11.221333-25.088-25.109333 0-13.866667 11.2-25.088 25.088-25.088h194.368a25.066667 25.066667 0 1 1 0 50.197333h-194.346667z m0-155.392a24.746667 24.746667 0 0 1-24.554667-25.642667c0-13.866667 11.2-24.554667 24.554667-24.554666h193.834667a25.066667 25.066667 0 1 1 0 50.197333h-193.834667z"
    p-id="4515" fill="currentColor"></path>
</svg>
