<?xml version="1.0" standalone="no"?>
<!DOCTYPE svg PUBLIC "-//W3C//DTD SVG 1.1//EN" "http://www.w3.org/Graphics/SVG/1.1/DTD/svg11.dtd"><svg class="icon"
  width="200px" height="200.00px" viewBox="0 0 1024 1024" version="1.1" xmlns="http://www.w3.org/2000/svg">
  <path fill="currentColor"
    d="M923.744 853.344a32 32 0 0 1 32 32v4.256a32 32 0 0 1-32 32H100.256a32 32 0 0 1-32-32v-4.256a32 32 0 0 1 32-32h823.488z m-614.4-477.888a32 32 0 0 1 32 32V787.2a32 32 0 0 1-32 32h-140.8a32 32 0 0 1-32-32V407.456a32 32 0 0 1 32-32h140.8z m546.112 102.4a32 32 0 0 1 32 32V787.2a32 32 0 0 1-32 32h-140.8a32 32 0 0 1-32-32v-277.344a32 32 0 0 1 32-32h140.8z m-273.056-307.2a32 32 0 0 1 32 32V787.2a32 32 0 0 1-32 32h-140.8a32 32 0 0 1-32-32V202.656a32 32 0 0 1 32-32h140.8z" />
</svg>
