<?xml version="1.0" standalone="no"?>
<!DOCTYPE svg PUBLIC "-//W3C//DTD SVG 1.1//EN" "http://www.w3.org/Graphics/SVG/1.1/DTD/svg11.dtd"><svg class="icon"
  width="200px" height="200.00px" viewBox="0 0 1024 1024" version="1.1" xmlns="http://www.w3.org/2000/svg">
  <path
    d="M580.256 853.344a68.256 68.256 0 0 1-136.352 4.864l-0.16-4.864h136.512z m-32-785.088a32 32 0 0 1 32 32l0.032 8.64c155.776 30.208 273.056 161.696 273.056 319.328l-0.032 322.688H889.6a32 32 0 0 1 32 32v4.288a32 32 0 0 1-32 32H134.4a32 32 0 0 1-32-32v-4.256a32 32 0 0 1 32-32h36.256V428.192c0-157.632 117.28-289.12 273.056-319.296v-8.64a32 32 0 0 1 32-32h72.544z"
    fill="currentColor" />
</svg>
