<?xml version="1.0" standalone="no"?>
<!DOCTYPE svg PUBLIC "-//W3C//DTD SVG 1.1//EN" "http://www.w3.org/Graphics/SVG/1.1/DTD/svg11.dtd">
<svg t="1650524003616" class="icon" viewBox="0 0 1024 1024" version="1.1" xmlns="http://www.w3.org/2000/svg" p-id="5311"
  xmlns:xlink="http://www.w3.org/1999/xlink" width="200" height="200">
  <path
    d="M501.76 96a64 64 0 0 1 64 64v373.76a64 64 0 0 1-64 64H128a64 64 0 0 1-64-64V160a64 64 0 0 1 64-64h373.76z m-164.672 71.68h-38.72v61.28H171.52v174.912h37.632v-19.712h89.248v119.68h38.72v-119.68h89.6v19.712h37.6V228.96h-127.232V167.68z m-38.72 97.856v82.048H209.184V265.536h89.248z m128.32 0v82.048h-89.6V265.536h89.6z"
    p-id="5312" fill="currentColor"></path>
  <path
    d="M207.36 651.52a35.84 35.84 0 0 1 35.584 31.68l0.256 4.16v89.6c0 18.368 13.824 33.536 31.68 35.584l4.16 0.256h89.6a35.84 35.84 0 0 1 4.16 71.424l-4.16 0.256h-89.6a107.52 107.52 0 0 1-107.328-101.216l-0.192-6.304v-89.6c0-19.808 16.032-35.84 35.84-35.84zM780.8 167.68a107.52 107.52 0 0 1 107.328 101.216l0.192 6.304v89.6a35.84 35.84 0 0 1-71.424 4.16l-0.256-4.16V275.2a35.84 35.84 0 0 0-31.68-35.584l-4.16-0.256h-89.6a35.84 35.84 0 0 1-4.16-71.424l4.16-0.256h89.6z"
    p-id="5313" fill="currentColor"></path>
  <path
    d="M896 418.56a64 64 0 0 1 64 64v373.76a64 64 0 0 1-64 64H522.24a64 64 0 0 1-64-64V633.6h79.36a64 64 0 0 0 63.84-59.2l0.16-4.8v-151.04H896z m-148.896 138.336h-47.68L601.6 812.8h44.8l23.296-64.16h107.168l23.296 64.16h44.8l-97.856-255.904z m-22.944 45.152l40.16 112.192H682.24l40.512-112.192h1.408z"
    p-id="5314" fill="currentColor"></path>
</svg>
