<?xml version="1.0" encoding="UTF-8"?>
<svg xmlns="http://www.w3.org/2000/svg" xmlns:xlink="http://www.w3.org/1999/xlink" width="208px" height="176px" viewBox="0 0 208 176" version="1.1">
  <title>编组 3</title>
  <defs>
    <linearGradient x1="81.3538461%" y1="62.9582415%" x2="0%" y2="62.9582415%" id="linearGradient-1">
      <stop stop-color="#FAFCFF" stop-opacity="0" offset="0%"></stop>
      <stop stop-color="#D8DADE" stop-opacity="0.971756108" offset="99.7709474%"></stop>
      <stop stop-color="#D7D9DD" offset="100%"></stop>
    </linearGradient>
    <linearGradient x1="9.0410751%" y1="34.9270998%" x2="89.0162771%" y2="65.0681265%" id="linearGradient-2">
      <stop stop-color="#F6F9FC" offset="0%"></stop>
      <stop stop-color="#E4E7EA" offset="100%"></stop>
    </linearGradient>
    <linearGradient x1="9.0410751%" y1="38.8529564%" x2="89.9422383%" y2="61.4015956%" id="linearGradient-3">
      <stop stop-color="#E6E8EE" offset="0%"></stop>
      <stop stop-color="#D3D9E0" offset="100%"></stop>
    </linearGradient>
    <path d="M4.13979675,79.7357142 C1.77911685,79.4591024 0,77.4664423 0,75.0990272 L0,13.3057493 L99.0232006,24.9774105 L133.007494,0.910259668 L133.007494,64.6025808 C133.007494,66.0492363 132.334426,67.41078 131.191159,68.2929805 L131.057168,68.3926231 L102.12517,89.1197856 C100.506282,90.2795731 98.5130227,90.7938596 96.535096,90.5620968 L4.13979675,79.7357142 L4.13979675,79.7357142 Z" id="path-4"></path>
    <linearGradient x1="0%" y1="75.5806606%" x2="98.361014%" y2="75.5806606%" id="linearGradient-6">
      <stop stop-color="#FAFCFF" stop-opacity="0" offset="0%"></stop>
      <stop stop-color="#E0E4E9" offset="100%"></stop>
    </linearGradient>
    <filter x="-37.0%" y="-71.6%" width="174.6%" height="242.7%" filterUnits="objectBoundingBox" id="filter-7">
      <feGaussianBlur stdDeviation="11" in="SourceGraphic"></feGaussianBlur>
    </filter>
    <linearGradient x1="46.9207069%" y1="39.8396457%" x2="58.7111581%" y2="58.2207447%" id="linearGradient-8">
      <stop stop-color="#EAF0F6" offset="0%"></stop>
      <stop stop-color="#DDE1E9" offset="100%"></stop>
    </linearGradient>
    <linearGradient x1="23.0710099%" y1="56.2815811%" x2="63.6725529%" y2="40.6226115%" id="linearGradient-9">
      <stop stop-color="#EDF3F9" offset="0%"></stop>
      <stop stop-color="#E1E5EC" offset="100%"></stop>
    </linearGradient>
    <linearGradient x1="34.4587987%" y1="59.3169093%" x2="65.104375%" y2="40.6830907%" id="linearGradient-10">
      <stop stop-color="#FAFCFF" offset="0%"></stop>
      <stop stop-color="#DFE3EB" offset="100%"></stop>
    </linearGradient>
    <linearGradient x1="100%" y1="47.3928928%" x2="3.73543697%" y2="53.8667967%" id="linearGradient-11">
      <stop stop-color="#FAFCFF" offset="0%"></stop>
      <stop stop-color="#E7EAEF" offset="100%"></stop>
    </linearGradient>
    <linearGradient x1="50%" y1="0%" x2="50%" y2="100%" id="linearGradient-12">
      <stop stop-color="#C5D3EB" offset="0%"></stop>
      <stop stop-color="#92A7D2" offset="100%"></stop>
    </linearGradient>
  </defs>
  <g id="缺省页" stroke="none" stroke-width="1" fill="none" fill-rule="evenodd">
    <g id="缺省页切图" transform="translate(-421.000000, -205.000000)">
      <g id="编组-5" transform="translate(111.000000, 205.000000)">
        <g id="编组-3" transform="translate(310.000000, 0.000000)">
          <g id="编组-2备份">
            <g id="编组" transform="translate(0.000000, 14.000000)">
              <polygon id="矩形" fill="url(#linearGradient-1)" points="167.495386 104.954148 208 102.589498 195.455574 132.264146 132.419907 131.715703"></polygon>
              <path d="M68.2150538,30.5224951 L167.335288,42.252109 L167.335288,104.023168 C167.335288,106.232307 165.544427,108.023168 163.335288,108.023168 C163.17819,108.023168 163.021229,108.013913 162.865219,107.995452 L75.2749158,97.6302578 C71.2483992,97.153771 68.2150538,93.7403027 68.2150538,89.6856911 L68.2150538,30.5224951 L68.2150538,30.5224951 Z" id="矩形备份-6" fill="url(#linearGradient-2)"></path>
              <path d="M34.3277941,30.6167004 L68.2150538,54.6239617 L67.4190485,114.827997 C67.4044454,115.93247 66.497255,116.815984 65.392782,116.801381 C64.9781876,116.795899 64.5755456,116.661697 64.2405679,116.417344 L37.6131726,96.993683 C35.5486317,95.4876798 34.3277941,93.08599 34.3277941,90.5305302 L34.3277941,30.6167004 L34.3277941,30.6167004 Z" id="矩形备份-5" fill="#E2E6ED" transform="translate(51.271424, 74.657646) scale(-1, 1) translate(-51.271424, -74.657646) "></path>
              <g id="矩形" transform="translate(34.327794, 41.341849)">
                <mask id="mask-5" fill="white">
                  <use xlink:href="#path-4"></use>
                </mask>
                <use id="蒙版" fill="url(#linearGradient-3)" xlink:href="#path-4"></use>
                <rect fill="url(#linearGradient-6)" mask="url(#mask-5)" x="74.4138845" y="18.5579969" width="24.6093161" height="73.5314656"></rect>
                <path d="M13.6884646,24.9774105 L93.1638396,34.2899062 L82.8899586,69.43674 C82.6141957,70.3801221 81.6938399,70.9833189 80.7187819,70.859719 L7.47010013,61.5745976 C6.37429949,61.4356922 5.59858268,60.4347651 5.73748814,59.3389645 C5.7460072,59.271759 5.7579353,59.2050299 5.7732263,59.1390349 L13.6884646,24.9774105 L13.6884646,24.9774105 Z" id="矩形备份-9" fill="#BEC3CF" opacity="0.667469113" filter="url(#filter-7)" mask="url(#mask-5)"></path>
              </g>
              <path d="M89.9449767,0.117728633 L186.260378,9.63886691 C186.809984,9.69319751 187.211484,10.1827848 187.157153,10.7323907 C187.141812,10.8875746 187.090392,11.0370203 187.006999,11.1687892 L167.335288,42.252109 L167.335288,42.252109 L68.2150538,30.6167004 L88.0873356,0.9938302 C88.4978636,0.3818714 89.2116475,0.045236297 89.9449767,0.117728633 Z" id="矩形备份-4" fill="url(#linearGradient-8)"></path>
              <path d="M34.3277941,54.6475986 L133.350995,66.3192598 L114.092947,108.44744 C113.72271,109.257357 112.861579,109.724916 111.98068,109.594316 L19.3764583,95.8650252 C18.2838317,95.7030349 17.529402,94.6859669 17.6913923,93.5933403 C17.7166602,93.4229076 17.7638455,93.2564545 17.831776,93.0981156 L34.3277941,54.6475986 L34.3277941,54.6475986 Z" id="矩形备份-3" fill="url(#linearGradient-9)"></path>
              <path d="M134.595473,46.7735001 L154.886815,70.7339017 C155.318713,71.2438955 155.976802,71.5044653 156.64076,71.4283751 L201.222548,66.3192598 L201.222548,66.3192598 L167.238254,42.252109 L135.268893,45.1312704 C134.718834,45.1808087 134.313083,45.6668779 134.362621,46.2169365 C134.381089,46.4220056 134.462409,46.616375 134.595473,46.7735001 Z" id="矩形备份-7" fill="url(#linearGradient-10)" transform="translate(167.286771, 56.901134) scale(-1, 1) translate(-167.286771, -56.901134) "></path>
              <path d="M5.97142986e-14,30.6167004 L33.8872597,54.6475986 L65.9988395,45.1657365 C66.5285156,45.0093344 66.8311141,44.4531582 66.6747121,43.923482 C66.602685,43.6795527 66.4404171,43.4722344 66.2209327,43.3437199 L31.9932177,23.3023964 C31.5436453,23.0391587 31.0091011,22.9617329 30.503315,23.0865923 L5.97142986e-14,30.6167004 L5.97142986e-14,30.6167004 Z" id="矩形备份-8" fill="url(#linearGradient-11)" transform="translate(34.107527, 38.769735) scale(-1, 1) translate(-34.107527, -38.769735) "></path>
            </g>
            <path d="M38,24 C38.5522847,24 39,24.4477153 39,25 L39,26.999 L41,27 C41.5522847,27 42,27.4477153 42,28 C42,28.5522847 41.5522847,29 41,29 L39,28.999 L39,31 C39,31.5522847 38.5522847,32 38,32 C37.4477153,32 37,31.5522847 37,31 L36.999,28.999 L35,29 C34.4477153,29 34,28.5522847 34,28 C34,27.4477153 34.4477153,27 35,27 L37,26.999 L37,25 C37,24.4477153 37.4477153,24 38,24 Z" id="形状结合" fill="#95B2D3"></path>
            <path d="M186,40 C186.552285,40 187,40.4477153 187,41 L187,42.999 L189,43 C189.552285,43 190,43.4477153 190,44 C190,44.5522847 189.552285,45 189,45 L187,44.999 L187,47 C187,47.5522847 186.552285,48 186,48 C185.447715,48 185,47.5522847 185,47 L184.999,44.999 L183,45 C182.447715,45 182,44.5522847 182,44 C182,43.4477153 182.447715,43 183,43 L185,42.999 L185,41 C185,40.4477153 185.447715,40 186,40 Z" id="形状结合备份-2" fill="#95B2D3"></path>
            <path d="M172,86 C172.552285,86 173,86.4477153 173,87 L173,88.999 L175,89 C175.552285,89 176,89.4477153 176,90 C176,90.5522847 175.552285,91 175,91 L173,90.999 L173,93 C173,93.5522847 172.552285,94 172,94 C171.447715,94 171,93.5522847 171,93 L170.999,90.999 L169,91 C168.447715,91 168,90.5522847 168,90 C168,89.4477153 168.447715,89 169,89 L171,88.999 L171,87 C171,86.4477153 171.447715,86 172,86 Z" id="形状结合备份-3" fill="#95B2D3"></path>
            <path d="M14,82 C14.5522847,82 15,82.4477153 15,83 L15,84.999 L17,85 C17.5522847,85 18,85.4477153 18,86 C18,86.5522847 17.5522847,87 17,87 L15,86.999 L15,89 C15,89.5522847 14.5522847,90 14,90 C13.4477153,90 13,89.5522847 13,89 L12.999,86.999 L11,87 C10.4477153,87 10,86.5522847 10,86 C10,85.4477153 10.4477153,85 11,85 L13,84.999 L13,83 C13,82.4477153 13.4477153,82 14,82 Z" id="形状结合备份-4" fill="#95B2D3"></path>
            <path d="M168,0 C168.552285,3.38176876e-17 169,0.44771525 169,1 L169,2.999 L171,3 C171.552285,3 172,3.44771525 172,4 C172,4.55228475 171.552285,5 171,5 L169,4.999 L169,7 C169,7.55228475 168.552285,8 168,8 C167.447715,8 167,7.55228475 167,7 L166.999,4.999 L165,5 C164.447715,5 164,4.55228475 164,4 C164,3.44771525 164.447715,3 165,3 L167,2.999 L167,1 C167,0.44771525 167.447715,-3.38176876e-17 168,0 Z" id="形状结合备份" fill="#95B2D3"></path>
          </g>
          <path d="M80.7038398,58 L80.7038398,46.856 L85.3518398,46.856 L85.3518398,40.696 L80.7038398,40.696 L80.7038398,12.64 L71.6878398,12.64 L59.8718398,40.248 L59.8718398,46.856 L73.4238398,46.856 L73.4238398,58 L80.7038398,58 Z M73.4238398,40.696 L66.3678398,40.696 L73.4238398,20.984 L73.4238398,40.696 Z M101.264836,58.672 C103.915503,58.672 106.108836,58.112 107.844836,56.992 C109.580836,55.872 110.887503,54.3226667 111.764836,52.344 C112.642169,50.3653333 113.080836,48.088 113.080836,45.512 L113.080836,45.512 L113.080836,25.408 C113.080836,22.7573333 112.660836,20.4333333 111.820836,18.436 C110.980836,16.4386667 109.692836,14.88 107.956836,13.76 C106.220836,12.64 103.990169,12.08 101.264836,12.08 C98.5395026,12.08 96.3088359,12.64 94.5728359,13.76 C92.8368359,14.88 91.5488359,16.4386667 90.7088359,18.436 C89.8688359,20.4333333 89.4488359,22.7573333 89.4488359,25.408 L89.4488359,25.408 L89.4488359,45.512 C89.4488359,48.088 89.8875026,50.3653333 90.7648359,52.344 C91.6421693,54.3226667 92.9488359,55.872 94.6848359,56.992 C96.4208359,58.112 98.6141693,58.672 101.264836,58.672 Z M101.264836,52.008 C100.144836,52.008 99.3048359,51.6533333 98.7448359,50.944 C98.1848359,50.2346667 97.8021693,49.376 97.5968359,48.368 C97.3915026,47.36 97.2888359,46.3706667 97.2888359,45.4 L97.2888359,45.4 L97.2888359,25.52 C97.2888359,24.4746667 97.3728359,23.4386667 97.5408359,22.412 C97.7088359,21.3853333 98.0728359,20.5173333 98.6328359,19.808 C99.1928359,19.0986667 100.070169,18.744 101.264836,18.744 C102.459503,18.744 103.336836,19.0986667 103.896836,19.808 C104.456836,20.5173333 104.820836,21.3853333 104.988836,22.412 C105.156836,23.4386667 105.240836,24.4746667 105.240836,25.52 L105.240836,25.52 L105.240836,45.4 C105.240836,46.3706667 105.147503,47.36 104.960836,48.368 C104.774169,49.376 104.400836,50.2346667 103.840836,50.944 C103.280836,51.6533333 102.422169,52.008 101.264836,52.008 Z M130.218613,58.672 C133.09328,58.672 135.398613,58.0933333 137.134613,56.936 C138.870613,55.7786667 140.12128,54.164 140.886613,52.092 C141.651947,50.02 142.034613,47.6213333 142.034613,44.896 C142.034613,42.8053333 141.782613,41.0226667 141.278613,39.548 C140.774613,38.0733333 140.074613,36.8786667 139.178613,35.964 C138.282613,35.0493333 137.23728,34.4053333 136.042613,34.032 C137.79728,33.5093333 139.234613,32.3893333 140.354613,30.672 C141.474613,28.9546667 142.034613,26.752 142.034613,24.064 C142.034613,21.488 141.57728,19.3133333 140.662613,17.54 C139.747947,15.7666667 138.41328,14.4133333 136.658613,13.48 C134.903947,12.5466667 132.738613,12.08 130.162613,12.08 C127.66128,12.08 125.53328,12.556 123.778613,13.508 C122.023947,14.46 120.68928,15.8413333 119.774613,17.652 C118.859947,19.4626667 118.402613,21.656 118.402613,24.232 L118.402613,24.232 L118.402613,26.416 L126.074613,26.416 L126.074613,26.416 L126.074613,24.736 C126.111947,22.832 126.40128,21.2826667 126.942613,20.088 C127.483947,18.8933333 128.55728,18.296 130.162613,18.296 C131.80528,18.296 132.915947,18.8373333 133.494613,19.92 C134.07328,21.0026667 134.362613,22.496 134.362613,24.4 C134.362613,26.752 133.970613,28.46 133.186613,29.524 C132.402613,30.588 130.983947,31.1386667 128.930613,31.176 L128.930613,31.176 L127.754613,31.176 L127.754613,37.392 L127.754613,37.392 L129.042613,37.392 C131.13328,37.504 132.542613,38.2226667 133.270613,39.548 C133.998613,40.8733333 134.362613,42.6933333 134.362613,45.008 C134.362613,46.5013333 134.259947,47.7893333 134.054613,48.872 C133.84928,49.9546667 133.45728,50.776 132.878613,51.336 C132.299947,51.896 131.431947,52.176 130.274613,52.176 C129.191947,52.176 128.342613,51.9146667 127.726613,51.392 C127.110613,50.8693333 126.690613,50.104 126.466613,49.096 C126.242613,48.088 126.111947,46.8746667 126.074613,45.456 L126.074613,45.456 L126.074613,44.112 L118.402613,44.112 L118.402613,45.68 C118.402613,48.2933333 118.794613,50.58 119.578613,52.54 C120.362613,54.5 121.622613,56.012 123.358613,57.076 C125.094613,58.14 127.38128,58.672 130.218613,58.672 Z" id="403" fill="url(#linearGradient-12)" fill-rule="nonzero"></path>
        </g>
      </g>
    </g>
  </g>
</svg>
