<svg t="1658928983151" class="icon" viewBox="0 0 1024 1024" version="1.1" xmlns="http://www.w3.org/2000/svg" p-id="3034" width="200" height="200"><path d="M714.218614 841.706554l-24.774679-24.78974a90.965996 90.965996 0 0 1 128.617484-128.602424l24.78974 24.78974 24.970467-24.970467c26.009648-26.05483 63.766561-32.862219 96.146841-20.843864V54.112719c0-29.819979-24.925285-53.992234-55.709142-54.082598C908.199082 0.045182 908.1539 0 908.093658 0H55.874809c-0.060242 0-0.105424 0.045182-0.165667 0.045182C24.925285 0.135545 0 24.29274 0 54.12778v853.649606a55.874809 55.874809 0 0 0 55.874809 55.874808h610.677021c-11.581598-32.184492-4.744088-69.519708 21.054712-95.333568l26.612072-26.612072z" fill="#CCCCCC" p-id="3035"></path><path d="M873.604895 180.636781h-813.27215V873.409107a30.121191 30.121191 0 0 0 30.121191 30.136251h783.150959a30.121191 30.121191 0 0 0 30.12119-30.136251V180.636781h-30.12119z" fill="#FFFFFF" p-id="3036"></path><path d="M692.87775 60.152018l-0.301212 0.030121H90.453936a30.121191 30.121191 0 0 0 0 60.242382h602.423814a30.121191 30.121191 0 0 0 30.121191-30.121191v-0.030121a30.121191 30.121191 0 0 0-30.121191-30.121191z m90.363573 0a30.121191 30.121191 0 1 0 0.01506 60.257442 30.121191 30.121191 0 0 0-0.01506-60.257442z m90.363572 0a30.121191 30.121191 0 1 0 0.01506 60.257442 30.121191 30.121191 0 0 0-0.01506-60.257442z" fill="#FFFFFF" p-id="3037"></path><path d="M955.383928 914.494411l-70.82998-70.814919 70.82998-70.81492a28.660313 28.660313 0 0 0-40.528063-40.528062l-70.82998 70.82998-71.718555-71.718555a28.705495 28.705495 0 0 0-40.678668 0 28.735616 28.735616 0 0 0 0 40.663608l71.733616 71.718555-70.860101 70.875161a28.645252 28.645252 0 1 0 40.513001 40.513002l70.875162-70.860101 70.82998 70.814919a28.765737 28.765737 0 0 0 40.663608-40.678668z" fill="#ED7161" p-id="3038"></path></svg>